<?xml version="1.0" encoding="UTF-8"?>
<!DOCTYPE svg PUBLIC "-//W3C//DTD SVG 1.1//EN" "http://www.w3.org/Graphics/SVG/1.1/DTD/svg11.dtd">
<!-- Creator: CorelDRAW 2017 -->
<svg xmlns="http://www.w3.org/2000/svg" xml:space="preserve" width="28mm" height="24mm" version="1.1" shape-rendering="geometricPrecision" text-rendering="geometricPrecision" image-rendering="optimizeQuality" fill-rule="evenodd" clip-rule="evenodd"
viewBox="0 0 2800 2400"
 xmlns:xlink="http://www.w3.org/1999/xlink">
 <g id="Capa_x0020_1">
  <metadata id="CorelCorpID_0Corel-Layer"/>
  <path fill="#FF6600" d="M2800 1197l0 3 0 0 0 0 0 0 0 3 0 2 0 0 0 2 0 1 0 0 0 3 0 0c-3,35 -17,68 -43,95 -2,2 -4,4 -6,6l-1044 1044c-58,58 -154,58 -212,0 -58,-58 -58,-154 0,-212l794 -794 -2138 0c-83,0 -150,-67 -150,-150l0 0c0,-83 67,-150 150,-150l2138 0 -794 -794c-58,-58 -58,-154 0,-212 58,-58 154,-58 212,0l1044 1044c2,2 4,4 6,6 26,26 41,60 43,95l0 0 0 3 0 0 0 1 0 2 0 0 0 2z"/>
 </g>
</svg>
