<?xml version="1.0" encoding="UTF-8"?>
<!DOCTYPE svg PUBLIC "-//W3C//DTD SVG 1.1//EN" "http://www.w3.org/Graphics/SVG/1.1/DTD/svg11.dtd">
<!-- Creator: CorelDRAW 2017 -->
<svg width="28mm" height="24mm" viewBox="0 0 2800 2400"/>
  <path fill="#FF6600" d="M0 1197l0 3 0 0 0 0 0 0 0 3 0 2 0 0 0 2 0 1 0 0 0 3 0 0c3,35 17,68 43,95 2,2 4,4 6,6l1044 1044c58,58 154,58 212,0 58,-58 58,-154 0,-212l-794 -794 2138 0c83,0 150,-67 150,-150l0 0c0,-83 -67,-150 -150,-150l-2138 0 794 -794c58,-58 58,-154 0,-212 -58,-58 -154,-58 -212,0l-1044 1044c-2,2 -4,4 -6,6 -26,26 -41,60 -43,95l0 0 0 3 0 0 0 1 0 2 0 0 0 2z"/>
</svg>
