<?xml version="1.0" encoding="UTF-8"?>
<!DOCTYPE svg PUBLIC "-//W3C//DTD SVG 1.1//EN" "http://www.w3.org/Graphics/SVG/1.1/DTD/svg11.dtd">
<!-- Creator: CorelDRAW 2017 -->
<svg xmlns="http://www.w3.org/2000/svg" xml:space="preserve" width="20mm" height="20mm" version="1.1" style="shape-rendering:geometricPrecision; text-rendering:geometricPrecision; image-rendering:optimizeQuality; fill-rule:evenodd; clip-rule:evenodd"
viewBox="0 0 2000 2000"
 xmlns:xlink="http://www.w3.org/1999/xlink">
 <defs>
  <style type="text/css">
   <![CDATA[
    .fil0 {fill:lime}
   ]]>
  </style>
 </defs>
 <g id="Capa_x0020_1">
  <metadata id="CorelCorpID_0Corel-Layer"/>
  <path class="fil0" d="M97 938l1571 0 -403 -403c-38,-38 -38,-100 0,-138l0 0c38,-38 100,-38 138,0l566 566c1,1 3,2 4,4l0 0c16,16 26,37 28,59l0 0 0 1 0 0 0 0 0 0 0 0 0 0 0 0 0 0 0 0 0 0 0 0 0 0 0 0 0 0 0 0 0 0 0 0 0 0 0 0 0 0 0 0 0 0 0 0 0 0c0,1 0,3 0,4l0 0c0,2 0,3 0,5l0 0 0 0 0 0 0 2 0 0c-2,22 -11,44 -28,61l0 0c-1,1 -3,3 -4,4l-565 565c-38,38 -100,38 -138,0l0 0c-38,-38 -38,-100 0,-138l403 -403 -1571 0c-54,0 -97,-44 -97,-97l0 0c0,-54 44,-97 97,-97z"/>
 </g>
</svg>
