<?xml version="1.0" encoding="UTF-8"?>
<!DOCTYPE svg PUBLIC "-//W3C//DTD SVG 1.1//EN" "http://www.w3.org/Graphics/SVG/1.1/DTD/svg11.dtd">
<!-- Creator: CorelDRAW 2017 -->
<svg xmlns="http://www.w3.org/2000/svg" xml:space="preserve" width="20mm" height="20mm" version="1.1" style="shape-rendering:geometricPrecision; text-rendering:geometricPrecision; image-rendering:optimizeQuality; fill-rule:evenodd; clip-rule:evenodd"
viewBox="0 0 2000 2000"
 xmlns:xlink="http://www.w3.org/1999/xlink">
 <defs>
  <style type="text/css">
   <![CDATA[
    .fil4 {fill:#F3D3B8;fill-rule:nonzero}
    .fil0 {fill:#E75252;fill-rule:nonzero}
    .fil3 {fill:#EFCBAA;fill-rule:nonzero}
    .fil5 {fill:#EABA91;fill-rule:nonzero}
    .fil1 {fill:#DE7F7F;fill-rule:nonzero}
    .fil2 {fill:#D43D3E;fill-rule:nonzero}
   ]]>
  </style>
 </defs>
 <g id="Capa_x0020_1">
  <metadata id="CorelCorpID_0Corel-Layer"/>
  <g id="_943138304">
   <g>
    <path class="fil0" d="M1496.47 90.28c-61.47,-54.92 -133.52,-90.28 -206.66,-90.28 -120.03,0 -225.99,62.45 -289.8,157.84 -63.83,-95.39 -169.79,-157.84 -289.81,-157.84 -73.14,0 -145.19,35.36 -206.67,90.28 -146.82,131.18 -196.01,345.72 -128.5,534.6 72.5,202.83 245.05,526.89 624.61,626.13l0 0.2 0.37 -0.1 0.36 0.1 0 -0.2c379.56,-99.24 552.12,-423.3 624.61,-626.13 67.52,-188.88 18.32,-403.42 -128.51,-534.6z"/>
    <path class="fil1" d="M998.43 1250.7c-0.07,-0.02 -0.13,-0.04 -0.2,-0.05 0.07,0.01 0.13,0.03 0.2,0.05zm-1.21 -0.32c-0.08,-0.02 -0.16,-0.04 -0.23,-0.07 0.06,0.02 0.16,0.05 0.23,0.07zm-1.24 -0.33c-0.06,-0.02 -0.11,-0.03 -0.18,-0.05 0.05,0.01 0.13,0.04 0.18,0.05zm-1.24 -0.34c-0.04,0 -0.1,-0.02 -0.14,-0.03 0.05,0.02 0.09,0.03 0.14,0.03z"/>
    <path class="fil2" d="M1000.37 1251.21l-0.36 -0.1 -0.37 0.1 0 -0.2c-0.4,-0.1 -0.81,-0.21 -1.21,-0.31 -0.07,-0.02 -0.13,-0.04 -0.2,-0.05 -0.34,-0.1 -0.67,-0.18 -1.01,-0.27 -0.07,-0.02 -0.17,-0.05 -0.23,-0.07 -0.34,-0.08 -0.68,-0.18 -1.01,-0.26 -0.05,-0.01 -0.13,-0.04 -0.18,-0.05 -0.35,-0.1 -0.71,-0.19 -1.06,-0.29 -0.05,0 -0.09,-0.01 -0.14,-0.03 -104.08,-27.89 -192.45,-72.76 -267.42,-127.32 9.11,2.72 18.26,5.41 27.61,7.86l0 0.2 0.37 -0.09 0.37 0.09 0 -0.2c379.55,-99.24 552.11,-423.31 624.61,-626.13 62.47,-174.8 24.94,-371.53 -97.38,-503.86 2.36,-0.05 4.68,-0.23 7.05,-0.23 73.14,0 145.19,35.36 206.66,90.28 103.24,92.24 158.21,225.68 158.28,362.45 0.03,57.75 -9.73,116.08 -29.77,172.15 -72.49,202.83 -245.05,526.89 -624.61,626.13l0 0.2z"/>
   </g>
   <g>
    <g>
     <path class="fil3" d="M576.94 1963.94c0.82,11.72 1.24,23.77 1.32,36.06l351.52 0 0 -280.24c0,0 51.9,-294.14 -27.29,-352.55 -59.27,-43.72 -307.09,-185.63 -428.01,-254.25 -38.03,-21.58 -85.91,-10.5 -111.03,25.7 -27.66,39.88 -17.51,95.09 22.44,122.12 90.26,61.09 230.43,160.36 219.62,180.97 -15.84,30.22 -90.07,40.29 -90.07,40.29 0,0 -291.59,-289.15 -313.37,-331.46 -21.78,-42.29 -5.71,-573.76 -33.65,-606.36 -54.66,-63.78 -123.33,13.91 -128.69,159.15 -2.17,58.8 -35.14,317.29 -39.6,455.27 -1.84,57.28 17.31,113.11 53.8,156.76 64.1,118.52 190.75,365.06 224.92,388.23 47.52,32.23 288.51,123.89 298.09,260.31z"/>
     <path class="fil4" d="M388.5 1262.54c-0.88,-0.58 -1.76,-1.18 -2.61,-1.76 -24.73,-16.73 -38.05,-44.27 -38.04,-72.28 -0.01,28.01 13.31,55.55 38.04,72.28 0.86,0.59 1.73,1.18 2.61,1.76z"/>
     <path class="fil5" d="M830.84 2000c2.89,-65.05 4.62,-115.13 7.99,-136.44 15.25,-96.26 57.15,-330.18 30.7,-408.85 -26.44,-78.65 -307.5,-264.8 -406.86,-291.87 -13.02,-3.54 -24.06,-5.14 -33.41,-5.14 -61.96,0 -49.45,69.99 -38.85,106.14 -0.64,-0.42 -1.28,-0.86 -1.92,-1.3 -0.87,-0.58 -1.74,-1.17 -2.6,-1.76 -24.73,-16.73 -38.05,-44.27 -38.04,-72.28 0.02,-17.24 5.06,-34.65 15.6,-49.84 16.47,-23.74 42.74,-36.68 69.62,-36.68 14.08,0 28.33,3.56 41.41,10.98 120.92,68.62 368.74,210.53 428.01,254.25 79.19,58.41 27.29,352.55 27.29,352.55l4.41 280.24 -103.35 0z"/>
    </g>
    <g>
     <path class="fil3" d="M1423.06 1963.94c-0.82,11.72 -1.24,23.77 -1.32,36.06l-351.51 0 0 -280.24c0,0 -51.9,-294.14 27.29,-352.55 59.27,-43.72 307.09,-185.63 428,-254.25 38.04,-21.58 85.92,-10.5 111.03,25.7 27.67,39.88 17.52,95.09 -22.43,122.12 -90.27,61.09 -230.44,160.36 -219.63,180.97 15.84,30.22 90.08,40.29 90.08,40.29 0,0 291.58,-289.15 313.37,-331.46 21.78,-42.29 5.71,-573.76 33.64,-606.36 54.67,-63.78 123.33,13.91 128.7,159.15 2.17,58.8 35.13,317.29 39.6,455.27 1.84,57.28 -17.31,113.11 -53.81,156.76 -64.1,118.52 -190.75,365.06 -224.92,388.23 -47.52,32.23 -288.51,123.89 -298.09,260.31z"/>
     <path class="fil4" d="M1611.51 1262.54c0.88,-0.58 1.76,-1.18 2.61,-1.76 24.73,-16.73 38.04,-44.27 38.03,-72.28 0.01,28.01 -13.3,55.55 -38.03,72.28 -0.86,0.59 -1.73,1.18 -2.61,1.76z"/>
     <path class="fil5" d="M1169.16 2000c-2.9,-65.05 -4.61,-115.13 -7.98,-136.44 -15.26,-96.26 -57.16,-330.18 -30.71,-408.85 26.44,-78.65 307.5,-264.8 406.87,-291.87 13.01,-3.54 24.05,-5.14 33.4,-5.14 61.96,0 49.45,69.99 38.86,106.14 0.63,-0.42 1.27,-0.86 1.91,-1.3 0.88,-0.58 1.75,-1.17 2.61,-1.76 24.73,-16.73 38.04,-44.27 38.04,-72.28 -0.02,-17.24 -5.07,-34.65 -15.61,-49.84 -16.47,-23.74 -42.74,-36.68 -69.61,-36.68 -14.08,0 -28.34,3.56 -41.42,10.98 -120.91,68.62 -368.73,210.53 -428,254.25 -79.19,58.41 -27.29,352.55 -27.29,352.55l-4.41 280.24 103.34 0z"/>
    </g>
   </g>
  </g>
 </g>
</svg>
