<?xml version="1.0" encoding="UTF-8"?>
<!DOCTYPE svg PUBLIC "-//W3C//DTD SVG 1.1//EN" "http://www.w3.org/Graphics/SVG/1.1/DTD/svg11.dtd">
<!-- Creator: CorelDRAW 2017 -->
<svg xmlns="http://www.w3.org/2000/svg" xml:space="preserve" width="25mm" height="22mm" version="1.1" style="shape-rendering:geometricPrecision; text-rendering:geometricPrecision; image-rendering:optimizeQuality; fill-rule:evenodd; clip-rule:evenodd"
viewBox="0 0 2500 2200"
 xmlns:xlink="http://www.w3.org/1999/xlink">
 <defs>
  <style type="text/css">
   <![CDATA[
    .fil0 {fill:#F0F0F0}
    .fil1 {fill:#F0F0F0;fill-rule:nonzero}
   ]]>
  </style>
 </defs>
 <g id="Capa_x0020_1">
  <metadata id="CorelCorpID_0Corel-Layer"/>
  <g id="_628875464">
   <path class="fil0" d="M492 865l477 -456c48,-45 115,-63 179,-48l594 139c70,16 126,70 144,140l145 541c19,70 -3,144 -55,193l-445 417c-24,22 -52,38 -83,46 -31,8 -64,9 -95,2l-594 -139c-70,-16 -126,-70 -144,-140l-145 -541c-14,-53 -5,-109 23,-154l-1 0zm943 923c-23,6 -47,7 -71,1l-594 -139c-52,-12 -94,-52 -108,-104l-145 -541c-14,-52 2,-107 41,-144l445 -417c36,-33 85,-47 133,-36l594 139c52,12 94,52 108,104l145 541c14,52 -2,107 -41,144l-445 417c-18,17 -39,28 -62,35l0 0z"/>
   <path class="fil1" d="M1563 911c-3,9 -3,19 1,28 4,9 11,15 20,19 9,4 19,3 28,-1 9,-4 15,-11 19,-20 4,-9 3,-19 -1,-28 -4,-9 -11,-16 -20,-19 -9,-4 -19,-3 -28,1 -9,4 -16,11 -19,20zm35 -106c3,-1 7,-2 10,0 3,1 6,4 7,7l39 86c7,16 7,32 1,48 -6,16 -17,28 -33,35 -16,7 -32,8 -48,1 -16,-6 -28,-17 -35,-33 -7,-16 -8,-32 -1,-48 6,-16 17,-28 33,-35 14,-6 27,-8 38,-5l-17 -39c-1,-3 -2,-7 0,-10 1,-3 4,-6 7,-7l0 0 -1 0z"/>
   <path class="fil1" d="M1712 832c-9,4 -16,11 -19,20 -3,9 -3,19 1,28l0 1 45 -50c-8,-4 -16,-3 -27,1zm56 -15c2,1 3,3 3,5 1,1 1,3 1,5 0,4 -1,7 -3,10 -7,8 -17,19 -29,33 -15,17 -24,27 -26,30 8,4 17,4 28,-1 7,-3 13,-8 17,-15 4,-7 5,-14 5,-21 -1,-6 2,-11 8,-13 4,-2 8,-2 12,1 2,1 4,3 5,6 1,1 1,3 1,5 1,13 -2,25 -8,37 -7,12 -16,20 -29,26 -16,7 -32,8 -48,1 -16,-6 -28,-17 -35,-33 -7,-16 -8,-32 -1,-48 6,-16 17,-28 33,-35 11,-5 23,-7 36,-5 12,2 23,7 32,15l-2 -3z"/>
   <path class="fil0" d="M752 1055l-61 16c-20,5 -35,17 -45,34l0 0c-10,18 -13,37 -8,56l68 253c5,20 17,35 35,45l0 0c18,10 37,13 56,8l0 0 61 -16c33,-9 57,-28 74,-57l0 0c17,-29 21,-60 12,-92l0 0c-10,-39 -31,-64 -62,-77l0 0c17,-24 21,-54 11,-88l0 0c-8,-31 -26,-54 -54,-70l0 0c-28,-16 -57,-20 -88,-11l1 -1zm-51 90c-1,-3 0,-5 1,-8l0 0c1,-2 3,-4 6,-5l0 0 61 -16c14,-4 27,-2 39,5l0 0c12,7 20,17 24,31l0 0c4,14 2,27 -5,39l0 0c-7,12 -18,20 -32,24l0 0 -70 19 -24 -90 0 1zm72 259c-2,-1 -4,-3 -4,-6l0 0 -27 -101 70 -19c15,-4 30,-2 44,6l0 0c14,8 22,20 27,35l0 0c4,15 2,30 -5,44l0 0c-8,14 -20,22 -35,27l0 0 -61 16c-3,1 -5,1 -8,-1l0 0 -1 -1z"/>
   <path class="fil0" d="M1549 1054l0 0c0,-1 -1,-2 -1,-3l-57 43c3,29 -3,57 -18,84l0 0c-20,34 -48,55 -86,65l0 0c-31,8 -61,6 -89,-5l0 0 -57 43c2,1 5,3 7,4l0 0c49,28 101,35 156,20l0 0c55,-15 96,-47 125,-96l0 0c28,-49 35,-101 21,-156l-1 1z"/>
   <path class="fil0" d="M1173 1005c-28,49 -35,101 -21,156l0 0c1,3 2,6 3,10 21,-8 41,-15 60,-23l0 0c0,-1 -1,-2 -1,-3l0 0c-10,-38 -5,-73 14,-107l0 0c19,-34 48,-56 86,-66l0 0c38,-10 74,-5 107,14l0 0c27,16 47,37 58,65l0 0c19,-6 40,-13 62,-19 -17,-43 -46,-77 -88,-101l0 0c-49,-28 -101,-35 -156,-20l0 0c-55,15 -96,47 -125,96l0 0 1 -2z"/>
   <path class="fil0" d="M1543 1030c0,0 -1,0 -1,0 3,7 5,13 7,20l0 0 3 -3 276 -136 -285 118 0 1z"/>
   <path class="fil0" d="M1146 1184c2,64 -3,146 -110,232l0 0 501 -373c-201,61 -276,98 -391,141l0 0z"/>
   <path class="fil0" d="M1146 1184c-21,134 -110,232 -110,232l0 0 501 -373c-224,113 -391,141 -391,141l0 0z"/>
   <path class="fil0" d="M911 1087c6,-22 15,-41 25,-55 -29,-36 -57,-56 -67,-64l0 0c-25,-7 -54,-8 -87,-1l0 0c0,0 68,26 130,120l-1 0z"/>
   <path class="fil0" d="M921 1104c40,67 75,164 85,303 42,-175 -9,-293 -61,-363l0 0c-13,21 -20,42 -24,60l0 0z"/>
   <path class="fil0" d="M945 1044c52,70 103,188 61,363l0 0c0,0 61,-145 14,-280l0 0c-6,-16 -25,-62 -61,-101 -5,6 -10,12 -14,18l0 0z"/>
   <path class="fil0" d="M959 1026c-5,6 -10,12 -14,18l0 0c52,70 103,188 61,363 0,0 110,-98 94,-228l0 0c-3,-16 -13,-63 -46,-109l0 0c-5,-7 -11,-15 -18,-22l0 0c-14,-16 -32,-31 -54,-44l0 0c-9,7 -17,14 -24,21l0 0 1 1z"/>
   <path class="fil0" d="M935 1032c4,-6 8,-12 13,-17l0 0c-4,-4 -8,-7 -12,-11l0 0c-19,-16 -42,-29 -68,-36 11,7 39,28 67,64z"/>
   <path class="fil0" d="M868 968c11,7 39,28 67,64 4,-6 8,-12 13,-17l0 0c6,-7 13,-14 19,-19l0 0c-28,-15 -63,-26 -105,-31 0,0 2,1 5,3l0 0 1 0z"/>
  </g>
 </g>
</svg>
