<?xml version="1.0" encoding="UTF-8"?>
<!DOCTYPE svg PUBLIC "-//W3C//DTD SVG 1.1//EN" "http://www.w3.org/Graphics/SVG/1.1/DTD/svg11.dtd">
<!-- Creator: CorelDRAW 2017 -->
<svg xmlns="http://www.w3.org/2000/svg" xml:space="preserve" width="107.156mm" height="104.246mm" version="1.1" style="shape-rendering:geometricPrecision; text-rendering:geometricPrecision; image-rendering:optimizeQuality; fill-rule:evenodd; clip-rule:evenodd"
viewBox="0 0 10716 10425"
 xmlns:xlink="http://www.w3.org/1999/xlink">
 <defs>
  <style type="text/css">
   <![CDATA[
    .fil0 {fill:#4A5136;fill-rule:nonzero}
    .fil2 {fill:#616D47;fill-rule:nonzero}
    .fil1 {fill:#778757;fill-rule:nonzero}
    .fil5 {fill:#9EB274;fill-rule:nonzero}
    .fil4 {fill:#A9BA7B;fill-rule:nonzero}
    .fil3 {fill:#B9D388;fill-rule:nonzero}
   ]]>
  </style>
 </defs>
 <g id="Capa_x0020_1">
  <metadata id="CorelCorpID_0Corel-Layer"/>
  <g id="_677730728">
   <g>
    <path class="fil0" d="M4753 8883c-24,-3 -17,-40 8,-37 490,65 1002,132 1484,-19 115,-36 220,-87 327,-143 101,-53 204,-73 314,-99 223,-53 429,-155 608,-297 19,-15 40,16 21,31 -176,139 -379,242 -596,296 -61,15 -123,24 -183,41 -65,18 -123,48 -182,80 -102,55 -207,100 -318,133 -483,145 -992,79 -1482,14z"/>
    <path class="fil1" d="M6463 9506c62,-61 127,-119 193,-175 21,-17 42,-35 63,-51 79,-63 167,-116 244,-181 69,-58 96,-135 106,-218 11,-95 -2,-199 -2,-291 0,-26 -30,-34 -49,-24 -8,4 -16,9 -23,13 -19,11 -37,23 -54,36 -1,1 -3,2 -4,3 -4,1 -8,2 -13,4 -148,81 -268,209 -339,363 -35,77 -53,157 -68,239 -16,89 -33,177 -100,242 -29,28 18,69 48,41z"/>
    <path class="fil2" d="M7054 8703c-4,3 -7,7 -11,10 3,1 6,2 9,3 1,-5 1,-9 2,-14zm-383 394c13,-74 36,-146 68,-214 48,-103 117,-194 200,-270 24,-18 50,-34 77,-49 19,-10 49,-2 49,24 2,173 45,385 -103,510 -77,65 -164,118 -244,181 -21,17 -42,34 -63,51 4,-78 1,-156 15,-234z"/>
    <path class="fil0" d="M6807 9093c-33,-48 -17,-101 5,-151 33,-75 74,-142 101,-221 18,-51 43,-105 80,-144 8,-5 15,-9 23,-13 19,-10 49,-2 49,24 1,93 13,196 2,291 -22,22 -45,44 -68,64 -36,69 -81,130 -157,161 -13,5 -29,-1 -37,-12z"/>
    <path class="fil3" d="M5928 10401c3,-16 5,-32 7,-48 10,-97 -5,-192 -14,-290 -2,-18 -3,-36 -4,-54 -4,-106 11,-216 96,-289 5,-5 8,-10 10,-15 2,-3 4,-6 5,-9 13,-11 25,-22 38,-33 5,-5 10,-11 12,-17 91,-84 166,-178 167,-311 0,-153 -17,-335 -156,-427 -8,-5 -15,-6 -21,-4 -15,-5 -33,1 -40,17 -6,3 -10,8 -12,15 -3,3 -5,7 -7,12 -2,1 -3,2 -5,4 -2,2 -4,5 -6,8 -60,122 -121,244 -182,367 -4,8 -8,16 -12,24 -54,108 -110,217 -139,335 -26,105 -32,226 26,322 76,126 177,233 173,391 -1,36 56,38 62,4z"/>
    <path class="fil4" d="M5935 10353c10,-97 -5,-192 -14,-290 -11,-121 -7,-258 93,-344 5,-5 8,-10 10,-15 2,-3 4,-6 5,-9 13,-11 25,-22 38,-33 5,-5 10,-11 12,-17 91,-84 166,-178 167,-311 0,-153 -17,-335 -156,-427 -8,-5 -15,-6 -21,-4 -10,-3 -21,-1 -30,4 -4,3 -36,46 -39,51 -60,122 -121,244 -182,367 -29,114 -56,230 -65,347 -9,122 12,235 47,352 33,110 107,193 126,306 1,9 5,16 9,22z"/>
    <path class="fil5" d="M5918 10009c-3,-93 8,-189 68,-260 9,-10 43,-44 58,-61 27,-29 63,-69 70,-76 75,-76 132,-162 132,-278 0,-153 -17,-335 -156,-427 -8,-5 -15,-6 -21,-4 -15,-5 -59,130 -61,136 -55,168 -129,324 -143,506 -8,95 -12,195 -5,290 4,60 30,118 59,173z"/>
    <path class="fil0" d="M5239 10384c17,-23 87,-139 92,-146 5,-8 10,-15 15,-23 22,-36 43,-72 64,-109 27,-48 53,-97 81,-145 7,-12 14,-23 21,-34 76,-113 172,-189 283,-272 111,-82 192,-184 258,-304 31,-57 55,-117 55,-183 0,-4 0,-7 0,-11 0,-5 -1,-11 -2,-16 0,0 0,0 0,0 -5,-32 -17,-61 -29,-91 -7,-27 -11,-54 -14,-81 0,-2 -1,-4 -1,-6 1,-3 2,-5 2,-8 0,-1 0,-3 0,-4 0,-1 0,-1 0,-1 0,-8 -5,-16 -12,-21 -1,-2 -2,-3 -3,-5 -4,-6 -11,-10 -21,-9 -3,0 -6,1 -10,1 0,0 0,0 0,0 -2,0 -3,1 -5,1 0,0 0,0 0,0 -7,1 -15,3 -22,6 -4,0 -7,2 -11,4 0,0 0,0 0,0 0,0 0,0 0,0 -2,1 -4,2 -6,3 -1,1 -2,2 -3,2 -4,3 -8,6 -11,10 -1,1 -2,2 -4,4 -4,5 -11,13 -13,15 -9,11 -18,21 -26,32 -22,27 -46,54 -70,80 -73,80 -152,158 -235,221 -47,36 -94,58 -128,108 -35,52 -62,112 -85,171 -102,255 -128,532 -209,794 -9,28 30,39 47,16z"/>
    <path class="fil2" d="M5346 10215c52,-82 95,-170 145,-254 79,-132 183,-215 305,-306 111,-82 192,-184 258,-304 31,-57 55,-117 55,-183 0,-44 -15,-81 -31,-118 -7,-27 -11,-54 -14,-81 0,-2 -1,-4 -1,-6 1,-3 2,-5 2,-8 -8,-15 -20,-27 -41,-36 -3,-1 -6,-2 -9,-2 -13,-3 -26,1 -34,10 -9,9 -14,23 -10,39 0,0 0,0 0,0 -1,2 -2,5 -3,8 -33,118 -106,216 -182,310 -75,93 -151,186 -218,285 -127,188 -221,398 -225,628 0,6 1,12 3,16z"/>
    <path class="fil1" d="M5409 10106c27,-48 53,-97 81,-145 7,-12 14,-23 21,-34 76,-113 172,-189 283,-272 111,-82 192,-184 258,-304 31,-57 55,-117 55,-183 0,-4 0,-7 0,-11 0,-5 -1,-10 -2,-15 0,0 0,-1 0,-1 0,0 0,0 0,0 -3,-22 -10,-43 -18,-64 -4,-9 -11,-27 -15,-53 -3,-25 -4,-59 -10,-79 -2,-7 -10,-26 -24,-30 -25,-8 -43,-1 -54,6 -7,4 -22,17 -25,21 -1,1 -2,2 -4,4 0,2 0,4 0,6 0,5 2,22 2,26 3,128 -70,258 -126,370 -55,109 -132,197 -207,293 -71,92 -119,194 -161,301 -21,54 -41,108 -56,163z"/>
    <path class="fil3" d="M4209 9659c13,-9 27,-18 40,-26 60,-39 120,-79 179,-118 6,-4 12,-7 17,-11 68,-45 135,-88 187,-152 99,-123 162,-276 185,-432 1,-9 -2,-20 -9,-25 -1,-1 -3,-2 -4,-3 -2,-5 -6,-10 -11,-12 -3,-1 -5,-2 -8,-3 -8,-3 -17,-3 -24,1 -32,8 -60,21 -87,36 -41,23 -77,54 -112,87 -60,59 -122,123 -167,194 -85,132 -89,316 -213,422 -24,21 1,60 28,42z"/>
    <path class="fil5" d="M4249 9632c65,-43 131,-86 197,-130 68,-45 135,-88 187,-152 99,-123 162,-276 185,-432 2,-10 -3,-23 -13,-28 -2,-5 -6,-10 -11,-12 -3,-1 -5,-2 -8,-3 -8,-3 -17,-3 -24,1 -32,8 -60,21 -87,36 -4,4 -9,8 -13,13 -25,21 -46,49 -68,77 -52,69 -111,137 -150,215 -33,67 -29,160 -78,218 -23,26 -55,38 -73,69 -19,31 -18,70 -41,99 -8,10 -8,20 -3,28z"/>
    <path class="fil4" d="M4428 9514c6,-4 12,-7 17,-11 68,-45 135,-88 187,-152 99,-123 162,-276 185,-432 1,-9 -2,-20 -9,-25 -7,-3 -16,-4 -27,-4 -61,1 -78,68 -111,106 -46,55 -90,98 -119,166 -24,57 -38,118 -55,178 -18,60 -42,118 -68,175z"/>
    <path class="fil0" d="M4769 8890c16,-1 31,-1 47,-1 1,0 1,0 2,0 0,0 0,0 1,0 0,0 1,0 1,0 0,0 1,0 1,-1 0,0 0,0 0,0 1,0 2,-1 2,-2 3,-3 4,-7 4,-11 0,-3 -2,-6 -4,-8 -10,-9 -20,-18 -30,-27 -3,-3 -6,-6 -9,-8 -5,-4 -10,-9 -15,-13 -2,-1 -3,-3 -4,-4 -6,-7 -12,-15 -18,-21 -12,-19 -26,-36 -41,-52 -8,-10 -77,-75 -86,-83 -22,-18 -44,-33 -68,-46 -25,-17 -50,-31 -76,-42 -86,-39 -189,-68 -287,-64 -4,0 -7,-1 -11,-1 -64,-5 -126,10 -189,11 -69,0 -134,-15 -197,-42 -5,-2 -9,-2 -13,-1 -3,-1 -7,-2 -10,-4 -9,-3 -16,3 -18,9 -1,4 0,9 4,12 0,4 2,8 7,10 3,1 6,3 9,4 1,1 2,1 2,1 1,4 4,8 10,11 48,20 72,62 104,99 24,28 53,51 81,74 16,13 31,25 47,37 54,40 110,77 170,106 81,40 169,68 259,77 85,8 170,-6 255,-18 16,-1 32,-1 48,-2 3,0 7,0 10,0 0,0 1,0 2,0 3,0 6,0 9,0z"/>
    <path class="fil2" d="M4760 8891c8,0 42,2 58,-2 0,0 0,0 1,0 0,0 1,0 1,0 0,0 1,0 1,-1 0,0 0,0 0,0 7,-4 9,-15 2,-21 -10,-9 -20,-18 -30,-27 -35,-14 -71,-21 -104,-45 -31,-23 -62,-47 -95,-68 -71,-45 -149,-79 -231,-97 -101,-22 -206,-20 -309,-33 -106,-13 -207,-75 -303,-118 -1,0 -1,-1 -2,-1 -1,4 0,9 4,12 0,4 2,8 7,10 3,1 6,3 9,4 1,1 2,1 2,1 1,4 4,8 10,11 48,20 72,62 104,99 24,28 53,51 81,74 67,55 139,105 217,144 81,40 169,68 259,77 85,8 170,-6 255,-18 16,-1 32,-1 48,-2 3,0 7,0 10,0 0,0 1,0 2,0z"/>
    <path class="fil1" d="M4769 8890c16,-1 31,-1 47,-1 1,0 1,0 2,0 0,0 0,0 1,0 0,0 1,0 1,0 0,0 1,0 1,-1 0,0 0,0 0,0 1,0 2,-1 2,-2 2,-3 3,-7 4,-11 0,-3 -2,-6 -4,-8 -10,-9 -20,-18 -30,-27 -3,-3 -6,-6 -9,-8 -88,10 -166,-22 -246,-54 -65,-26 -130,-45 -198,-58 -110,-21 -220,-29 -323,9 54,40 110,77 170,106 81,40 169,68 259,77 85,8 170,-6 255,-18 16,-1 32,-1 48,-2 3,0 7,0 10,0 0,0 1,0 2,0 3,0 6,0 9,0z"/>
    <path class="fil0" d="M5561 8884c-24,-34 -45,-70 -63,-107 -40,-79 -71,-162 -112,-240 -56,-103 -125,-199 -205,-285 -29,-50 -62,-96 -104,-137 -79,-77 -183,-132 -279,-189 -30,-30 -57,-64 -77,-101 -37,-69 -43,-147 -47,-224 -1,-13 -9,-21 -20,-22 -9,-4 -20,-3 -27,7 -7,10 -14,20 -19,29 -2,2 -3,4 -4,6 0,1 0,1 -1,2 -8,14 -14,27 -19,41 -3,8 -4,17 -5,26 0,1 0,2 -1,3 -36,115 -27,235 23,341 26,84 70,164 118,239 27,43 56,85 84,125 41,60 80,124 132,176 52,51 119,85 184,115 72,34 139,74 209,112 63,34 150,47 190,112 0,0 1,1 1,1 19,24 57,-3 41,-30z"/>
    <path class="fil2" d="M5561 8884c-24,-34 -45,-70 -63,-107 -55,-86 -102,-177 -188,-236 -109,-74 -224,-129 -325,-216 -200,-173 -343,-403 -400,-662 -3,8 -4,17 -5,26 0,1 0,2 -1,3 -36,115 -27,235 23,341 41,131 126,254 202,364 41,60 80,124 132,176 52,51 119,85 184,115 72,34 139,74 209,112 63,34 150,47 190,112 19,26 59,-1 42,-28z"/>
    <path class="fil1" d="M5521 8914c18,-13 26,-35 7,-56 -133,-154 -270,-292 -451,-388 -98,-52 -201,-96 -299,-149 -6,-5 -11,-11 -17,-16 -13,-11 -27,-22 -40,-33 27,43 56,85 84,125 41,60 80,124 132,176 52,51 119,85 184,115 72,34 139,74 209,112 63,34 150,47 190,112 0,0 1,1 1,1z"/>
    <path class="fil0" d="M5642 8908c0,-3 0,-5 -1,-8 -3,-14 -8,-28 -13,-41 -14,-36 -33,-69 -51,-104 -28,-53 -50,-109 -66,-167 -31,-113 -43,-229 -63,-344 -33,-182 -97,-350 -201,-500 -19,-27 -39,-54 -60,-80 -21,-26 -61,-6 -59,19 -6,6 -10,14 -10,24 4,73 -5,145 -31,214 -14,35 -34,67 -48,102 -4,11 -8,22 -11,34 -6,26 -7,54 -5,83 -11,158 48,309 146,439 58,78 125,162 204,219 38,27 79,49 117,76 35,25 66,50 107,64 24,8 46,-7 45,-31z"/>
    <path class="fil2" d="M5642 8908c-44,-84 -113,-154 -161,-236 -54,-94 -96,-193 -135,-294 -42,-109 -91,-221 -106,-339 -12,-98 -4,-197 8,-295 -19,-27 -39,-54 -60,-80 -21,-26 -61,-6 -59,19 -6,6 -10,14 -10,24 4,73 -5,145 -31,214 -18,46 -48,87 -59,136 -6,26 -7,54 -5,83 -11,158 48,309 146,439 58,78 125,162 204,219 38,27 79,49 117,76 35,25 66,50 107,64 24,8 46,-7 45,-31z"/>
    <path class="fil4" d="M5642 8908c0,-3 0,-5 -1,-8 -3,-14 -8,-28 -13,-41 -13,-13 -28,-24 -44,-36 -40,-31 -81,-60 -121,-90 -86,-63 -147,-136 -190,-234 -72,-163 -105,-346 -235,-476 -4,11 -8,22 -11,34 -6,26 -7,54 -5,83 -11,158 48,309 146,439 58,78 125,162 204,219 38,27 79,49 117,76 35,25 66,50 107,64 24,8 46,-7 45,-31z"/>
    <path class="fil5" d="M6666 8667c1,0 1,-1 2,-2 15,-11 20,-36 4,-51 -4,-3 -7,-7 -11,-10 0,-8 -3,-16 -10,-22 -43,-39 -46,-108 -71,-159 -24,-50 -57,-96 -88,-141 -67,-97 -164,-164 -221,-266 -49,-88 -120,-149 -200,-198 -77,-46 -162,-81 -247,-115 -45,-18 -89,-37 -132,-57 -35,-17 -57,27 -35,52 90,101 193,184 265,300 66,106 92,223 142,335 46,103 119,161 220,208 116,54 238,96 362,129 8,2 15,1 21,-2z"/>
    <path class="fil4" d="M6666 8667c17,-10 23,-37 6,-52 -4,-3 -7,-7 -11,-10 0,-8 -3,-16 -10,-22 -43,-39 -46,-108 -71,-159 -24,-50 -57,-96 -88,-141 -67,-97 -164,-164 -221,-266 -95,-172 -273,-243 -447,-313 13,88 72,155 136,216 93,88 157,178 212,294 45,93 94,178 172,248 77,69 164,143 260,187 20,9 41,16 63,20z"/>
    <path class="fil3" d="M6668 8666c15,-11 20,-36 4,-51 -4,-3 -7,-7 -11,-10 0,-8 -3,-16 -10,-22 -43,-39 -46,-108 -71,-159 -24,-50 -57,-96 -88,-141 -67,-97 -164,-164 -221,-266 -49,-88 -120,-149 -200,-198 8,33 24,66 39,92 34,58 66,114 90,178 21,55 41,110 70,162 54,96 141,200 230,265 46,34 96,48 127,99 12,20 25,38 42,51z"/>
    <path class="fil0" d="M6655 8658c4,-2 7,-4 10,-7 13,-14 15,-39 -7,-51 -2,-1 -3,-2 -4,-3 -78,-126 36,-239 92,-356 10,-20 18,-40 23,-60 11,-45 12,-91 5,-136 -13,-79 -53,-153 -113,-208 -27,-26 -65,12 -47,42 57,94 1,192 -57,269 -47,62 -81,118 -86,198 -7,116 40,234 137,298 1,1 1,1 2,2 6,8 14,11 22,12 9,4 17,4 24,1z"/>
    <path class="fil2" d="M6655 8658c21,-9 29,-44 3,-58 -2,-1 -3,-2 -4,-3 -91,-147 80,-277 115,-417 11,-45 12,-91 5,-136 -101,136 -281,247 -228,437 12,44 55,142 110,176z"/>
    <path class="fil1" d="M6664 8651c13,-14 15,-39 -7,-51 -2,-1 -3,-2 -4,-3 -78,-126 36,-239 92,-356 -26,11 -51,21 -74,39 -42,33 -72,82 -82,134 -5,25 -5,53 4,78 3,59 27,121 70,159z"/>
   </g>
   <g>
    <path class="fil0" d="M1771 940c8,-24 44,-9 36,15 -157,484 -319,989 -255,1504 15,123 48,239 84,357 35,112 36,220 42,336 12,235 77,463 188,670 12,22 -24,38 -36,16 -108,-203 -175,-428 -189,-658 -4,-64 -2,-129 -8,-193 -6,-69 -26,-133 -47,-199 -36,-113 -63,-228 -76,-346 -57,-515 104,-1018 260,-1502z"/>
    <path class="fil1" d="M824 2555c50,74 97,150 141,228 14,24 27,49 40,73 49,92 87,190 139,280 46,80 119,122 201,147 95,29 202,35 295,51 26,5 40,-24 33,-45 -3,-9 -6,-17 -9,-26 -8,-21 -16,-42 -26,-61 -1,-2 -1,-3 -2,-5 0,-4 0,-9 -2,-14 -55,-165 -162,-310 -305,-410 -71,-50 -149,-83 -229,-113 -87,-33 -173,-66 -226,-146 -23,-35 -74,6 -51,40z"/>
    <path class="fil2" d="M1527 3302c-3,-4 -6,-8 -9,-13 -1,3 -3,6 -5,8 5,2 9,3 13,5zm-328 -461c72,27 141,64 204,109 95,68 175,154 236,253 14,28 25,57 35,87 7,22 -7,50 -33,45 -175,-30 -397,-26 -496,-199 -52,-90 -89,-188 -139,-280 -13,-25 -27,-49 -40,-73 78,18 158,30 234,58z"/>
    <path class="fil0" d="M1178 2980c55,-24 105,2 151,33 70,47 130,101 205,143 48,27 98,63 131,108 3,9 6,17 9,26 7,22 -7,50 -33,45 -94,-16 -201,-23 -295,-51 -18,-26 -36,-54 -52,-81 -63,-49 -116,-106 -134,-188 -3,-14 6,-29 19,-35z"/>
    <path class="fil3" d="M18 1848c16,6 31,11 47,16 96,28 196,31 296,40 18,2 37,4 56,7 108,16 217,52 275,151 4,6 8,10 14,13 2,2 5,5 9,6 9,15 18,30 26,45 4,6 9,12 15,15 68,107 150,201 284,226 155,28 342,45 461,-79 7,-7 9,-14 8,-21 7,-14 5,-34 -10,-43 -2,-6 -7,-12 -13,-15 -3,-4 -6,-7 -11,-9 -1,-2 -2,-4 -3,-5 -2,-3 -4,-5 -7,-8 -113,-84 -225,-168 -337,-252 -7,-5 -14,-11 -22,-16 -100,-74 -199,-152 -313,-203 -102,-46 -222,-74 -330,-34 -142,53 -268,136 -427,103 -37,-8 -49,50 -16,62z"/>
    <path class="fil4" d="M64 1864c96,28 196,31 296,40 124,12 263,41 330,157 4,6 8,10 14,13 2,2 5,5 9,6 9,15 18,30 26,45 4,6 9,12 15,15 68,107 150,201 284,226 155,28 342,45 461,-79 7,-7 9,-14 8,-21 5,-9 5,-21 1,-31 -2,-5 -40,-45 -45,-49 -113,-84 -225,-168 -337,-252 -110,-50 -222,-99 -340,-130 -122,-32 -240,-32 -365,-17 -117,13 -215,73 -333,71 -9,0 -17,2 -24,5z"/>
    <path class="fil5" d="M416 1911c94,14 190,43 251,116 9,10 36,51 51,70 25,32 58,76 64,85 63,90 140,164 257,185 155,28 342,45 461,-79 7,-7 9,-14 8,-21 7,-14 -121,-84 -127,-87 -159,-87 -304,-190 -485,-238 -95,-25 -195,-48 -293,-59 -62,-7 -125,9 -186,28z"/>
    <path class="fil0" d="M162 1155c20,22 125,114 131,120 7,7 14,13 20,19 32,29 65,57 99,85 44,36 88,71 131,109 10,9 21,18 30,28 100,98 160,209 223,337 63,127 150,228 260,318 51,42 109,77 175,89 4,1 7,1 11,2 6,1 11,1 16,1 0,0 0,0 0,0 34,1 65,-6 97,-13 28,-2 56,-2 85,1 2,0 4,0 6,0 2,2 5,3 8,4 1,0 3,1 4,1 1,0 1,0 1,0 8,1 17,-2 23,-8 2,0 4,-1 5,-2 7,-3 12,-10 13,-19 0,-3 1,-6 1,-10 0,0 0,0 0,0 0,-2 0,-4 0,-5 0,0 0,0 0,0 0,-7 0,-15 -2,-23 0,-4 0,-8 -2,-12 0,0 0,0 0,-1 0,0 0,0 0,0 -1,-2 -1,-4 -2,-7 -1,-1 -1,-2 -2,-3 -2,-5 -5,-9 -8,-13 -1,-1 -2,-2 -3,-4 -4,-5 -11,-13 -13,-15 -9,-11 -18,-22 -28,-33 -23,-28 -46,-56 -68,-85 -68,-88 -132,-183 -180,-279 -27,-54 -41,-106 -86,-149 -46,-45 -102,-83 -157,-118 -239,-150 -515,-228 -764,-358 -26,-14 -45,24 -25,45z"/>
    <path class="fil2" d="M313 1293c74,68 154,127 230,193 119,104 184,225 253,365 63,127 150,228 260,318 51,42 109,77 175,89 44,8 84,-1 125,-10 28,-2 56,-2 85,1 2,0 4,0 6,0 2,2 5,3 8,4 17,-5 31,-15 44,-35 2,-3 3,-6 4,-8 5,-13 3,-26 -4,-36 -8,-11 -21,-18 -38,-18 0,0 0,0 0,0 -2,-2 -5,-3 -8,-5 -114,-55 -199,-147 -280,-241 -80,-93 -160,-187 -248,-273 -167,-164 -362,-297 -594,-344 -6,-1 -12,-1 -17,0z"/>
    <path class="fil1" d="M412 1378c44,36 88,71 131,109 10,9 21,18 30,28 100,98 160,209 223,337 63,127 150,228 260,318 51,42 109,77 175,89 4,1 7,1 11,2 5,1 10,1 16,1 0,0 1,0 1,0 0,0 0,0 0,0 23,1 46,-2 68,-6 10,-2 29,-6 57,-5 26,1 60,7 81,5 8,-1 28,-5 35,-18 12,-24 9,-44 4,-56 -3,-7 -13,-25 -16,-29 -1,-1 -2,-2 -3,-4 -2,-1 -4,-1 -6,-1 -5,-1 -22,-2 -27,-3 -130,-21 -248,-118 -351,-196 -100,-76 -175,-170 -258,-264 -79,-89 -174,-157 -275,-218 -51,-31 -101,-61 -154,-87z"/>
    <path class="fil3" d="M1086 247c6,15 13,30 19,45 29,68 58,136 86,203 3,6 5,13 8,20 33,77 64,153 119,217 106,123 249,215 403,267 9,3 20,2 27,-5 1,-1 2,-2 3,-4 6,-1 11,-4 14,-9 2,-3 3,-5 5,-8 4,-7 7,-16 4,-24 -2,-33 -10,-65 -20,-95 -16,-46 -40,-88 -68,-130 -48,-72 -102,-146 -166,-205 -118,-110 -303,-149 -387,-294 -16,-28 -61,-11 -48,21z"/>
    <path class="fil5" d="M1106 292c31,74 63,149 95,223 33,77 64,153 119,217 106,123 249,215 403,267 10,3 24,2 30,-8 6,-1 11,-4 14,-9 2,-3 3,-5 5,-8 4,-7 7,-16 4,-24 -2,-33 -10,-65 -20,-95 -3,-5 -7,-10 -11,-15 -17,-30 -41,-56 -66,-83 -60,-66 -118,-138 -190,-191 -62,-45 -157,-59 -206,-119 -23,-28 -29,-62 -56,-87 -28,-25 -68,-31 -93,-60 -8,-10 -19,-11 -28,-8z"/>
    <path class="fil4" d="M1192 495c3,6 5,13 8,20 33,77 64,153 119,217 106,123 249,215 403,267 9,3 20,2 27,-5 4,-7 7,-16 9,-27 10,-62 -54,-92 -87,-132 -47,-57 -82,-110 -146,-151 -54,-35 -113,-60 -170,-89 -58,-29 -111,-64 -164,-101z"/>
    <path class="fil0" d="M1760 955c-2,16 -5,32 -7,47 0,1 0,1 0,2 0,0 0,1 0,1 0,0 0,1 0,1 0,1 0,1 0,1 0,0 0,0 0,0 0,1 1,2 2,3 2,3 6,5 10,6 3,0 6,0 9,-3 11,-9 22,-17 33,-26 3,-3 7,-5 10,-8 5,-4 11,-8 16,-12 2,-1 3,-3 5,-4 9,-4 17,-9 25,-14 21,-9 41,-20 60,-32 12,-6 91,-64 100,-72 22,-19 42,-38 59,-60 21,-22 40,-45 57,-69 55,-80 104,-179 118,-278 1,-4 2,-7 3,-11 17,-63 13,-129 24,-193 12,-69 40,-133 78,-192 3,-5 4,-9 3,-14 2,-3 4,-6 5,-9 5,-8 0,-17 -6,-20 -4,-2 -9,-2 -12,2 -4,-1 -9,0 -12,5 -2,3 -4,6 -6,9 -1,1 -1,1 -2,2 -5,0 -9,3 -13,8 -29,45 -76,61 -120,87 -32,20 -62,44 -90,68 -16,13 -31,27 -46,41 -51,47 -98,97 -139,152 -56,74 -100,158 -125,248 -24,85 -25,174 -29,261 -2,16 -5,33 -7,49 -1,3 -1,7 -1,10 0,0 0,1 0,2 0,3 -1,6 -1,10z"/>
    <path class="fil2" d="M1761 946c-2,8 -10,42 -9,59 0,0 0,1 0,1 0,0 0,1 0,1 0,1 0,1 0,1 0,0 0,0 0,0 3,8 14,11 21,6 11,-9 22,-17 33,-26 21,-33 34,-68 65,-97 29,-27 59,-54 86,-83 58,-63 107,-136 140,-215 41,-98 58,-205 90,-306 33,-105 114,-195 176,-285 0,-1 1,-1 1,-2 -4,-2 -9,-2 -12,2 -4,-1 -9,0 -12,5 -2,3 -4,6 -6,9 -1,1 -1,1 -2,2 -5,0 -9,3 -13,8 -29,45 -76,61 -120,87 -32,20 -62,44 -90,68 -68,58 -132,122 -185,193 -56,74 -100,158 -125,248 -24,85 -25,174 -29,261 -2,16 -5,33 -7,49 -1,3 -1,7 -1,10 0,0 0,1 0,2z"/>
    <path class="fil1" d="M1760 955c-2,16 -5,32 -7,47 0,1 0,1 0,2 0,0 0,1 0,1 0,0 0,1 0,1 0,1 0,1 0,1 0,0 0,0 0,0 0,1 1,2 2,3 3,2 7,4 10,6 3,0 6,0 9,-3 11,-9 22,-17 33,-26 3,-3 7,-5 10,-8 6,-91 53,-163 100,-239 38,-61 70,-123 96,-190 41,-107 70,-218 51,-329 -51,47 -98,97 -139,152 -56,74 -100,158 -125,248 -24,85 -25,174 -29,261 -2,16 -5,33 -7,49 -1,3 -1,7 -1,10 0,0 0,1 0,2 0,3 -1,6 -1,10z"/>
    <path class="fil0" d="M1620 1758c39,-18 79,-32 120,-44 87,-26 177,-41 263,-69 115,-37 224,-90 327,-155 56,-20 109,-45 158,-80 93,-65 168,-161 243,-247 36,-25 75,-46 117,-59 77,-25 157,-17 235,-6 14,2 23,-6 26,-16 5,-9 6,-20 -2,-28 -9,-9 -18,-17 -26,-25 -1,-2 -3,-3 -5,-5 0,0 -1,-1 -1,-1 -13,-11 -25,-20 -38,-27 -8,-4 -16,-8 -25,-10 -1,0 -2,-1 -3,-1 -109,-58 -233,-71 -349,-40 -90,11 -179,41 -264,75 -49,20 -96,41 -142,62 -68,31 -141,58 -202,101 -62,43 -108,105 -151,165 -48,67 -100,127 -152,190 -46,57 -76,143 -148,171 -1,0 -1,1 -2,1 -28,15 -8,59 23,47z"/>
    <path class="fil2" d="M1620 1758c39,-18 79,-32 120,-44 97,-40 198,-71 273,-146 95,-96 172,-203 279,-289 212,-170 471,-272 743,-283 -8,-4 -16,-8 -25,-10 -1,0 -2,-1 -3,-1 -109,-58 -233,-71 -349,-40 -141,17 -280,81 -406,137 -68,31 -141,58 -202,101 -62,43 -108,105 -151,165 -48,67 -100,127 -152,190 -46,57 -76,143 -148,171 -30,14 -10,60 21,47z"/>
    <path class="fil1" d="M1597 1711c9,20 31,32 55,18 180,-106 345,-219 476,-385 71,-90 134,-186 206,-275 6,-5 13,-10 19,-15 14,-11 27,-23 41,-35 -49,20 -96,41 -142,62 -68,31 -141,58 -202,101 -62,43 -108,105 -151,165 -48,67 -100,127 -152,190 -46,57 -76,143 -148,171 -1,0 -1,1 -2,1z"/>
    <path class="fil0" d="M1581 1835c3,0 6,1 9,0 15,-1 29,-3 43,-5 39,-7 76,-20 115,-33 59,-19 119,-30 181,-36 120,-11 240,-1 360,-1 190,0 372,-34 543,-111 31,-14 62,-29 92,-46 30,-17 17,-60 -8,-63 -5,-7 -12,-13 -23,-14 -75,-9 -146,-32 -210,-71 -33,-20 -62,-47 -94,-68 -10,-7 -21,-12 -32,-17 -26,-11 -54,-17 -83,-20 -158,-40 -321,-8 -471,66 -90,45 -187,96 -259,166 -35,33 -64,71 -99,104 -32,31 -63,57 -85,96 -13,23 -2,48 23,51z"/>
    <path class="fil2" d="M1581 1835c93,-29 177,-86 269,-120 105,-37 214,-62 323,-83 119,-23 241,-52 362,-44 101,6 200,33 297,62 31,-14 62,-29 92,-46 30,-17 17,-60 -8,-63 -5,-7 -12,-13 -23,-14 -75,-9 -146,-32 -210,-71 -43,-26 -80,-65 -126,-85 -26,-11 -54,-17 -83,-20 -158,-40 -321,-8 -471,66 -90,45 -187,96 -259,166 -35,33 -64,71 -99,104 -32,31 -63,57 -85,96 -13,23 -2,48 23,51z"/>
    <path class="fil4" d="M1581 1835c3,0 6,1 9,0 15,-1 29,-3 43,-5 15,-10 29,-24 45,-38 38,-35 76,-70 114,-106 80,-75 165,-123 272,-149 179,-43 370,-42 525,-149 -10,-7 -21,-12 -32,-17 -26,-11 -54,-17 -83,-20 -158,-40 -321,-8 -471,66 -90,45 -187,96 -259,166 -35,33 -64,71 -99,104 -32,31 -63,57 -85,96 -13,23 -2,48 23,51z"/>
    <path class="fil5" d="M1635 2915c0,1 1,2 1,3 8,18 33,27 51,13 4,-3 8,-6 12,-10 8,2 17,0 25,-6 48,-36 118,-27 174,-43 55,-15 108,-40 159,-63 110,-50 196,-136 310,-174 98,-33 173,-93 237,-166 61,-69 112,-149 162,-228 27,-42 54,-84 82,-123 23,-32 -16,-63 -46,-45 -119,72 -221,161 -352,212 -119,47 -242,52 -365,82 -113,28 -185,91 -251,184 -76,108 -141,223 -197,342 -4,8 -4,15 -1,22z"/>
    <path class="fil4" d="M1635 2915c7,19 33,30 52,16 4,-3 8,-6 12,-10 8,2 17,0 25,-6 48,-36 118,-27 174,-43 55,-15 108,-40 159,-63 110,-50 196,-136 310,-174 192,-65 296,-232 400,-394 -91,-3 -170,45 -243,98 -107,77 -209,125 -336,160 -103,28 -198,62 -283,128 -84,65 -175,140 -237,228 -13,18 -24,39 -31,60z"/>
    <path class="fil3" d="M1636 2918c8,18 33,27 51,13 4,-3 8,-6 12,-10 8,2 17,0 25,-6 48,-36 118,-27 174,-43 55,-15 108,-40 159,-63 110,-50 196,-136 310,-174 98,-33 173,-93 237,-166 -35,2 -71,12 -100,23 -65,24 -128,45 -196,58 -59,11 -119,21 -177,41 -107,36 -228,106 -311,184 -42,40 -67,88 -124,110 -22,9 -43,18 -60,33z"/>
    <path class="fil0" d="M1646 2906c1,4 3,8 5,11 11,16 37,22 53,2 1,-1 2,-2 3,-4 142,-55 235,81 343,159 18,13 37,25 57,34 44,20 90,29 137,30 82,1 165,-25 232,-76 31,-23 0,-68 -33,-55 -105,40 -195,-35 -262,-108 -54,-59 -104,-104 -184,-123 -116,-28 -244,-3 -327,83 -1,0 -2,1 -2,1 -9,5 -14,12 -16,20 -6,8 -7,16 -5,24z"/>
    <path class="fil2" d="M1646 2906c6,23 39,37 58,13 1,-1 2,-2 3,-4 166,-65 265,133 400,193 44,20 90,29 137,30 -119,-127 -198,-330 -400,-312 -47,4 -154,30 -199,79z"/>
    <path class="fil1" d="M1652 2917c11,16 37,22 53,2 1,-1 2,-2 3,-4 142,-55 235,81 343,159 -6,-29 -12,-55 -26,-82 -26,-48 -70,-88 -121,-107 -25,-9 -53,-15 -80,-11 -60,-7 -127,5 -174,42z"/>
   </g>
   <g>
    <path class="fil0" d="M9798 2285c19,16 -8,44 -27,28 -385,-326 -788,-666 -1285,-801 -119,-32 -237,-46 -360,-57 -116,-10 -216,-49 -324,-88 -220,-78 -454,-103 -686,-80 -25,2 -26,-36 -1,-39 228,-23 458,1 675,74 61,20 119,47 180,66 66,20 132,26 200,32 118,9 233,28 346,61 494,142 896,479 1280,805z"/>
    <path class="fil1" d="M8672 807c-87,18 -175,33 -263,44 -27,3 -55,7 -82,10 -103,11 -207,8 -309,22 -91,12 -157,63 -211,129 -62,76 -108,172 -158,252 -14,23 7,46 29,48 9,1 18,1 27,1 22,1 44,1 66,-1 2,0 3,0 5,0 4,2 8,3 13,3 172,12 346,-32 491,-125 72,-46 132,-105 190,-168 63,-67 126,-134 219,-153 41,-8 22,-70 -18,-62z"/>
    <path class="fil2" d="M7722 1171c5,-1 10,-2 15,-3 -2,-2 -4,-5 -6,-8 -3,4 -6,7 -9,11zm547 -128c-52,56 -112,106 -176,146 -98,62 -207,103 -321,121 -31,2 -62,2 -93,-1 -22,-2 -43,-25 -29,-48 94,-149 174,-355 369,-381 102,-14 207,-11 309,-22 28,-3 55,-6 82,-10 -46,65 -87,134 -141,193z"/>
    <path class="fil0" d="M8149 972c1,59 -41,96 -88,126 -70,46 -142,81 -208,134 -43,34 -95,66 -149,80 -9,0 -18,-1 -27,-1 -22,-2 -43,-25 -29,-48 50,-80 96,-176 158,-252 31,-7 63,-13 94,-17 69,-39 141,-67 223,-52 14,2 24,17 25,30z"/>
    <path class="fil3" d="M9624 333c-11,12 -22,24 -32,37 -62,78 -102,168 -148,256 -9,16 -18,33 -27,49 -55,93 -129,180 -242,195 -7,1 -13,4 -17,8 -3,1 -6,3 -9,5 -17,2 -34,5 -51,7 -7,1 -14,4 -20,8 -124,22 -241,61 -314,175 -85,132 -170,297 -102,453 4,9 9,13 16,15 10,12 29,17 43,7 7,0 13,-2 19,-6 4,-1 9,-3 12,-7 2,0 4,0 6,-1 3,-1 6,-2 10,-4 119,-72 239,-143 358,-215 8,-5 15,-9 23,-14 106,-63 214,-126 304,-211 80,-76 152,-176 155,-290 5,-150 -24,-298 67,-431 21,-31 -27,-64 -51,-38z"/>
    <path class="fil4" d="M9592 370c-62,78 -102,168 -148,256 -57,109 -136,226 -269,244 -7,1 -13,4 -17,8 -3,1 -6,3 -9,5 -17,2 -34,5 -51,7 -7,1 -14,4 -20,8 -124,22 -241,61 -314,175 -85,132 -170,297 -102,453 4,9 9,13 16,15 7,8 17,13 28,12 5,0 57,-19 62,-23 119,-72 239,-143 358,-215 87,-82 175,-167 247,-263 75,-100 120,-208 153,-328 32,-112 14,-225 61,-333 4,-8 5,-16 5,-24z"/>
    <path class="fil5" d="M9417 676c-48,81 -111,158 -201,186 -13,4 -61,14 -83,20 -39,10 -92,25 -102,27 -106,24 -203,67 -266,166 -85,132 -170,297 -102,453 4,9 9,13 16,15 10,12 123,-79 128,-84 140,-114 289,-208 402,-356 59,-78 118,-161 165,-246 30,-54 39,-118 45,-182z"/>
    <path class="fil0" d="M10207 727c-27,10 -152,72 -159,75 -9,4 -17,8 -25,12 -39,18 -77,38 -115,59 -50,27 -99,54 -149,79 -12,6 -25,12 -37,17 -128,55 -252,68 -393,77 -140,9 -266,52 -389,119 -58,31 -112,71 -147,127 -2,3 -4,6 -6,9 -3,5 -5,10 -7,15 0,0 0,0 0,0 -14,30 -20,62 -25,94 -9,27 -20,52 -33,77 -1,2 -2,4 -2,6 -2,2 -5,3 -7,6 -1,1 -2,2 -2,3 0,0 -1,1 -1,1 -4,7 -4,17 -2,24 0,2 0,4 0,5 0,8 4,15 13,19 3,1 6,3 9,4 0,0 0,0 0,0 1,1 3,1 5,2 0,0 0,0 0,0 7,3 14,5 22,7 3,2 7,3 11,3 0,0 0,0 1,0 0,0 0,0 0,0 2,0 4,0 7,0 1,0 3,0 4,-1 5,0 10,-1 15,-2 1,0 3,-1 5,-2 7,-2 16,-5 19,-6 13,-4 27,-9 40,-13 34,-11 69,-21 104,-31 107,-29 217,-52 324,-60 60,-5 112,2 169,-22 59,-25 115,-62 167,-100 228,-163 403,-387 617,-567 23,-19 -5,-50 -32,-40z"/>
    <path class="fil2" d="M10022 814c-90,42 -175,94 -264,138 -141,70 -275,84 -430,95 -140,9 -266,52 -389,119 -58,31 -112,71 -147,127 -24,37 -31,78 -38,118 -9,27 -20,52 -33,77 -1,2 -2,4 -2,6 -2,2 -5,3 -7,6 -2,17 2,34 15,53 2,3 4,5 6,7 10,10 23,13 34,10 13,-3 25,-12 30,-28 0,0 0,0 0,0 2,-1 5,-3 7,-5 93,-84 210,-127 327,-166 116,-39 232,-76 344,-125 213,-92 409,-220 540,-416 4,-5 6,-11 6,-16z"/>
    <path class="fil1" d="M9907 872c-50,27 -99,54 -149,79 -12,6 -25,12 -37,17 -128,55 -252,68 -393,77 -140,9 -266,52 -389,119 -58,31 -112,71 -147,127 -2,3 -4,6 -6,9 -3,5 -5,9 -7,14 0,0 0,0 -1,1 0,0 0,0 0,0 -10,21 -15,43 -20,64 -2,10 -5,29 -17,54 -11,23 -29,53 -35,73 -2,7 -6,28 4,39 17,20 37,24 50,25 8,0 28,-2 33,-4 1,0 3,-1 5,-2 1,-2 2,-3 3,-5 3,-5 11,-20 13,-23 68,-112 202,-183 312,-248 108,-63 222,-96 339,-137 112,-39 209,-101 304,-170 47,-35 94,-70 138,-109z"/>
    <path class="fil3" d="M10692 1918c-16,0 -32,0 -49,1 -73,1 -146,2 -219,3 -7,0 -14,0 -21,0 -83,1 -165,1 -244,27 -153,51 -292,148 -397,269 -6,7 -9,18 -6,27 0,2 1,3 2,4 -1,6 0,12 3,16 2,2 4,5 5,7 5,7 13,12 21,13 32,10 63,16 95,17 48,3 96,-3 144,-13 84,-17 172,-38 251,-75 145,-67 251,-222 416,-245 32,-4 33,-52 -1,-52z"/>
    <path class="fil5" d="M10643 1919c-80,1 -160,2 -240,3 -83,1 -165,1 -244,27 -153,51 -292,148 -397,269 -7,8 -10,21 -4,31 -1,6 0,12 3,16 2,2 4,5 5,7 5,7 13,12 21,13 32,10 63,16 95,17 6,-1 12,-2 18,-4 34,-5 67,-17 101,-29 83,-30 171,-56 247,-102 65,-39 113,-122 187,-144 34,-10 68,-3 101,-19 33,-16 54,-51 90,-63 12,-4 18,-13 18,-23z"/>
    <path class="fil4" d="M10424 1921c-7,0 -14,0 -21,0 -83,1 -165,1 -244,27 -153,51 -292,148 -397,269 -6,7 -9,18 -6,27 5,7 12,13 21,18 53,32 104,-15 154,-30 70,-21 132,-34 193,-77 52,-36 98,-81 146,-122 49,-42 101,-78 155,-112z"/>
    <path class="fil0" d="M9788 2269c-14,-8 -27,-16 -41,-24 -1,0 -1,-1 -2,-1 0,0 -1,0 -1,0 0,0 -1,0 -1,0 -1,0 -1,0 -2,0 0,0 0,0 0,0 -1,0 -2,0 -3,0 -4,1 -7,4 -9,7 -1,3 -2,6 -1,9 4,13 7,26 11,40 1,4 2,8 3,12 2,6 3,13 5,19 1,2 1,4 2,6 1,10 2,19 4,28 0,23 3,45 7,67 1,13 25,107 28,119 9,27 20,53 33,77 12,28 26,54 42,78 52,81 125,162 211,213 3,2 6,5 9,7 52,40 114,60 168,95 59,37 107,87 146,144 3,4 7,7 11,8 2,3 4,6 7,9 6,8 15,6 20,2 3,-3 5,-7 3,-12 2,-3 3,-8 0,-13 -2,-3 -4,-6 -6,-9 0,-1 -1,-2 -1,-3 1,-5 1,-10 -3,-15 -31,-43 -27,-93 -35,-143 -6,-37 -17,-73 -29,-109 -6,-20 -13,-39 -20,-58 -24,-64 -52,-126 -87,-185 -47,-79 -107,-152 -180,-209 -69,-54 -150,-88 -229,-125 -14,-8 -28,-17 -43,-25 -3,-2 -6,-3 -9,-5 0,0 -1,-1 -2,-1 -3,-2 -6,-3 -8,-5z"/>
    <path class="fil2" d="M9796 2274c-7,-5 -35,-25 -51,-30 0,0 -1,0 -1,0 0,0 -1,0 -1,0 -1,0 -1,0 -2,0 0,0 0,0 0,0 -8,0 -16,8 -13,17 4,13 7,26 11,40 22,32 49,57 64,96 14,37 27,74 44,110 36,77 84,150 145,210 75,74 166,131 247,198 84,70 136,178 195,269 0,1 1,1 1,2 3,-3 5,-7 3,-12 2,-3 3,-8 0,-13 -2,-3 -4,-6 -6,-9 0,-1 -1,-2 -1,-3 1,-5 1,-10 -3,-15 -31,-43 -27,-93 -35,-143 -6,-37 -17,-73 -29,-109 -28,-84 -62,-167 -107,-243 -47,-79 -107,-152 -180,-209 -69,-54 -150,-88 -229,-125 -14,-8 -28,-17 -43,-25 -3,-2 -6,-3 -9,-5 0,0 -1,-1 -2,-1z"/>
    <path class="fil1" d="M9788 2269c-14,-8 -27,-16 -41,-24 -1,0 -1,-1 -2,-1 0,0 -1,0 -1,0 0,0 -1,0 -1,0 -1,0 -1,0 -2,0 0,0 0,0 0,0 -1,0 -2,0 -3,0 -3,2 -6,5 -9,7 -1,3 -2,6 -1,9 4,13 7,26 11,40 1,4 2,8 3,12 81,40 130,110 182,182 41,58 87,110 138,159 83,78 173,146 283,171 -24,-64 -52,-126 -87,-185 -47,-79 -107,-152 -180,-209 -69,-54 -150,-88 -229,-125 -14,-8 -28,-17 -43,-25 -3,-2 -6,-3 -9,-5 0,0 -1,-1 -2,-1 -3,-2 -6,-3 -8,-5z"/>
    <path class="fil0" d="M9104 1839c2,42 0,85 -4,127 -9,89 -29,178 -35,268 -9,120 -2,240 19,358 -3,59 1,117 14,175 25,110 85,215 135,316 9,43 14,86 10,129 -6,80 -44,150 -83,218 -7,12 -3,23 5,30 6,8 16,13 27,9 12,-5 23,-10 33,-15 2,-1 4,-2 7,-3 0,0 1,-1 1,-1 15,-7 27,-16 39,-25 7,-6 13,-12 19,-19 1,-1 1,-1 2,-2 94,-79 153,-187 168,-305 24,-86 30,-179 30,-271 0,-52 -1,-104 -3,-154 -2,-74 -1,-151 -17,-224 -16,-73 -56,-138 -95,-201 -43,-69 -79,-140 -117,-211 -35,-64 -102,-123 -102,-201 0,-1 0,-1 0,-2 -3,-31 -51,-29 -51,3z"/>
    <path class="fil2" d="M9104 1839c2,42 0,85 -4,127 0,104 -10,209 31,306 52,124 122,234 160,365 76,259 72,535 -21,789 7,-6 13,-12 19,-19 1,-1 1,-1 2,-2 94,-79 153,-187 168,-305 37,-136 31,-288 27,-424 -2,-74 -1,-151 -17,-224 -16,-73 -56,-138 -95,-201 -43,-69 -79,-140 -117,-211 -35,-64 -102,-123 -102,-201 -2,-33 -51,-32 -51,1z"/>
    <path class="fil1" d="M9155 1835c-22,1 -41,16 -37,44 30,206 71,399 174,582 55,99 120,193 175,292 2,8 4,15 6,23 5,17 11,34 17,50 0,-52 -1,-104 -3,-154 -2,-74 -1,-151 -17,-224 -16,-73 -56,-138 -95,-201 -43,-69 -79,-140 -117,-211 -35,-64 -102,-123 -102,-201 0,-1 0,-1 0,-2z"/>
    <path class="fil0" d="M9047 1773c-1,2 -3,5 -4,8 -5,14 -9,28 -12,42 -8,39 -10,77 -13,118 -5,61 -17,121 -36,179 -35,114 -90,221 -135,330 -72,174 -109,354 -103,540 1,34 4,68 8,102 4,34 49,39 61,16 8,-1 16,-6 22,-16 37,-65 84,-122 145,-166 31,-22 67,-39 98,-61 10,-7 19,-15 28,-23 20,-19 36,-43 50,-68 97,-130 129,-292 117,-458 -7,-99 -18,-207 -55,-301 -17,-44 -41,-86 -58,-130 -16,-41 -29,-79 -56,-114 -16,-20 -43,-20 -56,1z"/>
    <path class="fil2" d="M9047 1773c-8,97 13,195 8,292 -5,110 -24,219 -46,327 -24,117 -43,241 -96,349 -44,91 -105,171 -169,249 1,34 4,68 8,102 4,34 49,39 61,16 8,-1 16,-6 22,-16 37,-65 84,-122 145,-166 41,-30 89,-49 125,-84 20,-19 36,-43 50,-68 97,-130 129,-292 117,-458 -7,-99 -18,-207 -55,-301 -17,-44 -41,-86 -58,-130 -16,-41 -29,-79 -56,-114 -16,-20 -43,-20 -56,1z"/>
    <path class="fil4" d="M9047 1773c-1,2 -3,5 -4,8 -5,14 -9,28 -12,42 4,18 11,36 18,55 17,48 36,96 54,144 39,101 51,198 34,305 -28,180 -101,355 -61,538 10,-7 19,-15 28,-23 20,-19 36,-43 50,-68 97,-130 129,-292 117,-458 -7,-99 -18,-207 -55,-301 -17,-44 -41,-86 -58,-130 -16,-41 -29,-79 -56,-114 -16,-20 -43,-20 -56,1z"/>
    <path class="fil5" d="M8036 1416c-1,0 -2,0 -3,0 -19,1 -37,20 -31,41 1,5 3,10 4,15 -4,7 -6,15 -3,25 15,57 -20,119 -26,176 -6,56 -4,114 -2,170 4,120 51,231 43,350 -6,103 20,194 63,280 40,82 95,159 149,235 28,40 57,81 82,121 21,33 64,9 59,-25 -21,-136 -64,-264 -62,-403 2,-127 44,-242 62,-366 17,-114 -13,-204 -74,-300 -70,-110 -151,-214 -240,-310 -6,-6 -13,-9 -19,-9z"/>
    <path class="fil4" d="M8036 1416c-20,-1 -40,19 -34,42 1,5 3,10 4,15 -4,7 -6,15 -3,25 15,57 -20,119 -26,176 -6,56 -4,114 -2,170 4,120 51,231 43,350 -13,200 101,359 211,515 37,-83 23,-173 2,-260 -31,-127 -36,-239 -20,-369 13,-105 17,-205 -11,-308 -28,-102 -62,-214 -120,-303 -12,-19 -27,-37 -43,-51z"/>
    <path class="fil3" d="M8033 1416c-19,1 -37,20 -31,41 1,5 3,10 4,15 -4,7 -6,15 -3,25 15,57 -20,119 -26,176 -6,56 -4,114 -2,170 4,120 51,231 43,350 -6,103 20,194 63,280 12,-32 16,-70 17,-101 3,-69 7,-134 20,-202 12,-59 25,-117 29,-178 7,-112 -11,-249 -51,-354 -21,-54 -55,-94 -54,-155 1,-24 0,-47 -8,-67z"/>
    <path class="fil0" d="M8040 1430c-4,-1 -8,0 -12,1 -19,5 -34,25 -22,48 1,2 1,3 2,5 -3,151 -163,185 -276,255 -19,12 -37,25 -53,39 -35,33 -61,72 -79,114 -32,75 -39,161 -18,241 9,37 62,25 63,-10 3,-112 105,-166 197,-200 75,-28 134,-56 183,-123 70,-96 94,-223 47,-332 0,-1 0,-2 0,-2 -1,-10 -6,-17 -12,-22 -5,-8 -12,-13 -20,-14z"/>
    <path class="fil2" d="M8040 1430c-23,-3 -49,22 -34,48 1,2 1,3 2,5 -3,177 -222,193 -328,295 -35,33 -61,72 -79,114 162,-61 378,-57 437,-250 14,-45 31,-152 3,-212z"/>
    <path class="fil1" d="M8028 1431c-19,5 -34,25 -22,48 1,2 1,3 2,5 -3,151 -163,185 -276,255 29,5 55,10 85,7 54,-5 107,-31 144,-70 18,-19 33,-43 40,-69 29,-52 44,-119 27,-175z"/>
   </g>
  </g>
 </g>
</svg>
