<?xml version="1.0" encoding="UTF-8"?>
<!DOCTYPE svg PUBLIC "-//W3C//DTD SVG 1.1//EN" "http://www.w3.org/Graphics/SVG/1.1/DTD/svg11.dtd">
<!-- Creator: CorelDRAW 2017 -->
<svg xmlns="http://www.w3.org/2000/svg" xml:space="preserve" width="20mm" height="20mm" version="1.1" style="shape-rendering:geometricPrecision; text-rendering:geometricPrecision; image-rendering:optimizeQuality; fill-rule:evenodd; clip-rule:evenodd"
viewBox="0 0 2000 2000"
 xmlns:xlink="http://www.w3.org/1999/xlink">
 <defs>
  <style type="text/css">
   <![CDATA[
    .fil0 {fill:none}
    .fil4 {fill:#0E2557;fill-rule:nonzero}
    .fil2 {fill:#3B5DA1;fill-rule:nonzero}
    .fil3 {fill:#8BC0E8;fill-rule:nonzero}
    .fil1 {fill:white;fill-rule:nonzero}
   ]]>
  </style>
 </defs>
 <g id="Capa_x0020_1">
  <metadata id="CorelCorpID_0Corel-Layer"/>
  <circle class="fil0" cx="1000" cy="1000" r="1000"/>
  <g id="_948800480">
   <path class="fil1" d="M1335.97 680.7l0 36.73 0 82.1 0 80.65c0,148.23 -96.62,274.13 -230.11,318.6l0 -711.43c0,-43.97 35.65,-79.61 79.62,-79.61l0 -52.5 -384.96 0 0 52.5 14 0c43.97,0 79.62,35.64 79.62,79.61l0 711.43c-133.49,-44.47 -230.11,-170.37 -230.11,-318.6l0 -80.65 0 -82.1 0 -36.73c0,-157.81 -112.89,-289.73 -262.16,-319.28 -17.52,16.43 -34.4,33.53 -50.53,51.33 57.7,13.48 102.72,114.96 102.72,174.34l0 130.34 0 82.1 0 80.65c0,264.81 189.57,485.99 440.08,535.44l0 453c34.7,4.19 70.02,6.38 105.86,6.38 35.84,0 71.16,-2.19 105.86,-6.38l0 -453c250.5,-49.45 440.08,-270.63 440.08,-535.44l0 -80.65 0 -82.1 0 -130.34c0,-59.38 45.02,-160.86 102.72,-174.34 -16.13,-17.8 -33.01,-34.9 -50.53,-51.33 -149.28,29.55 -262.16,161.47 -262.16,319.28z"/>
   <g>
    <path class="fil2" d="M894.13 1415.62c-250.5,-49.45 -440.07,-270.63 -440.07,-535.44l0 -80.65 0 -82.1 0 -130.34c0,-59.38 -45.03,-160.8 -102.74,-174.27l-4.76 5.32 -3.04 3.42c-3.59,4.06 -7.12,8.16 -10.63,12.29l-2.15 2.54c-3.6,4.26 -7.16,8.56 -10.67,12.89l-2.39 2.98c-3.41,4.24 -6.79,8.51 -10.12,12.81l-2.15 2.8c-3.39,4.41 -6.76,8.88 -10.07,13.37l-5.8 7.95 -0.21 0.3 -5.5 7.72 -5.61 8.09 -0.38 0.55c-2.49,3.66 -4.97,7.33 -7.42,11.03l-4.32 6.55c-2.25,3.46 -4.48,6.95 -6.69,10.45l-4.56 7.29c-2.08,3.37 -4.13,6.77 -6.17,10.17l-4.79 8.1c-1.9,3.25 -3.79,6.52 -5.64,9.8l-5.02 8.96 -5.03 9.27c-2,3.74 -3.99,7.48 -5.94,11.25l-3.38 6.63c-2.05,4.07 -4.08,8.14 -6.09,12.26l-2.85 5.9c-2.05,4.3 -4.06,8.6 -6.04,12.93l-2.79 6.16c-1.93,4.31 -3.82,8.65 -5.69,12.99l-2.91 6.86c-1.78,4.24 -3.51,8.51 -5.22,12.79l-2.87 7.26c-1.73,4.43 -3.42,8.88 -5.08,13.34l-2.46 6.73c-1.83,5.06 -3.64,10.16 -5.38,15.27l-1.4 4.19c-1.8,5.38 -3.55,10.77 -5.26,16.2l-1.18 3.83c-1.7,5.54 -3.37,11.1 -4.96,16.68l-1.05 3.72c-1.55,5.52 -3.05,11.05 -4.5,16.59l-1.05 4.07c-1.45,5.71 -2.84,11.44 -4.19,17.19l-0.79 3.41c-1.42,6.19 -2.77,12.39 -4.06,18.62l-0.4 1.9c-1.35,6.63 -2.63,13.3 -3.83,19.98l-0.38 2.17c-1.13,6.43 -2.21,12.87 -3.21,19.34l-0.44 2.95c-0.92,6.18 -1.8,12.38 -2.6,18.6l-0.4 3.17c-0.77,6.21 -1.48,12.44 -2.13,18.7l-0.29 2.87c-0.66,6.53 -1.23,13.07 -1.74,19.63l-0.14 1.83c-0.5,6.63 -0.92,13.28 -1.27,19.93l-0.13 2.55c-0.33,6.83 -0.6,13.68 -0.78,20.55l-0.04 1.39c-0.19,7.35 -0.28,14.7 -0.28,22.09l0 0.01 0 0.01c0,7.32 0.08,14.63 0.28,21.91l0.23 6.76c0.17,4.87 0.32,9.74 0.55,14.59 0.14,2.93 0.34,5.86 0.52,8.79 0.26,4.4 0.52,8.8 0.84,13.17 0.2,2.78 0.45,5.55 0.68,8.32 0.36,4.25 0.72,8.5 1.13,12.73l1.04 9.87 1.27 11.06 1.35 10.44 1.49 10.58 1.56 10.27c0.58,3.64 1.19,7.28 1.81,10.9l1.74 9.82 2.14 11.15c0.62,3.13 1.23,6.28 1.89,9.4 0.8,3.81 1.64,7.6 2.48,11.39 0.69,3.06 1.36,6.14 2.08,9.2 0.83,3.54 1.7,7.07 2.58,10.59 0.82,3.35 1.64,6.7 2.5,10.02 0.84,3.23 1.74,6.43 2.62,9.65 0.95,3.5 1.89,7.02 2.89,10.51l2.17 7.31c4.99,16.91 10.44,33.6 16.42,50.06l0.02 0.05c1.86,5.1 3.78,10.18 5.72,15.24l1.49 3.91c1.97,5.06 4.02,10.09 6.09,15.12l1.36 3.35c2.01,4.79 4.06,9.56 6.14,14.31l1.99 4.55c2.07,4.68 4.2,9.3 6.35,13.92l1.9 4.06c2.22,4.72 4.51,9.41 6.81,14.08l1.92 3.87c2.45,4.9 4.95,9.78 7.49,14.63l1.13 2.14c2.83,5.37 5.72,10.71 8.66,16.02l0.13 0.22c133.05,239.59 375.38,410.12 659.67,444.45l0 -452.8zm-665.93 -828.15c-2,3.74 -3.99,7.48 -5.94,11.25l5.94 -11.25z"/>
   </g>
   <path class="fil3" d="M664.03 680.69l0 36.74 0 82.1 0 80.65c0,148.23 96.62,274.13 230.1,318.6l0 -711.43c0,-43.97 -35.64,-79.61 -79.61,-79.61l-14 0 0 -52.5 384.96 0 0 52.5c-43.97,0 -79.62,35.64 -79.62,79.61l0 711.43c133.49,-44.47 230.11,-170.37 230.11,-318.6l0 -80.65 0 -82.1 0 -36.74c0,-157.75 112.84,-289.55 262.03,-319.15 -97.6,-91.49 -216.17,-160.9 -347.72,-200.15l-1.32 -0.4c-6.08,-1.8 -12.18,-3.53 -18.31,-5.2l-2.2 -0.61c-5.69,-1.54 -11.4,-3.01 -17.13,-4.43l-5.48 -1.34c-4.61,-1.11 -9.22,-2.18 -13.84,-3.22 -3.73,-0.83 -7.47,-1.66 -11.22,-2.45l-9.38 -1.91c-4.32,-0.86 -8.64,-1.71 -12.97,-2.49l-7.97 -1.41c-4.66,-0.81 -9.33,-1.59 -14,-2.32l-6.76 -1.03c-5.06,-0.75 -10.12,-1.46 -15.2,-2.13l-5.82 -0.74c-5.39,-0.67 -10.78,-1.29 -16.19,-1.86l-5.14 -0.52c-5.82,-0.59 -11.67,-1.1 -17.52,-1.56l-4.03 -0.32c-6.05,-0.45 -12.14,-0.84 -18.23,-1.16l-4.04 -0.21c-6.47,-0.31 -12.97,-0.57 -19.48,-0.74l-2.13 -0.06c-6.83,-0.18 -13.68,-0.26 -20.54,-0.27l-1.38 -0.01 -1.38 0.01c-6.86,0.02 -13.71,0.09 -20.54,0.27l-2.13 0.06c-6.51,0.18 -13.01,0.43 -19.48,0.74l-4.04 0.21c-6.09,0.33 -12.18,0.71 -18.23,1.16l-4.03 0.32c-5.85,0.46 -11.7,0.98 -17.52,1.56l-5.14 0.52c-5.41,0.57 -10.8,1.19 -16.19,1.86l-5.82 0.74c-5.09,0.67 -10.15,1.37 -15.2,2.13l-6.76 1.03c-4.67,0.73 -9.34,1.51 -14,2.32l-7.97 1.41c-4.34,0.79 -8.66,1.63 -12.97,2.49l-9.38 1.91c-3.76,0.79 -7.49,1.61 -11.22,2.45 -4.62,1.04 -9.24,2.11 -13.84,3.22l-5.48 1.34c-5.73,1.42 -11.44,2.89 -17.13,4.43l-2.2 0.61c-6.13,1.67 -12.23,3.4 -18.31,5.2l-1.32 0.4c-131.55,39.26 -250.1,108.67 -347.72,200.15 149.18,29.6 262.03,161.4 262.03,319.15z"/>
   <path class="fil2" d="M1648.68 412.82c-57.71,13.47 -102.74,114.89 -102.74,174.27l0 130.34 0 82.1 0 80.65c0,264.81 -189.58,485.99 -440.08,535.44l0 452.8c284.29,-34.31 526.63,-204.86 659.68,-444.45l0.13 -0.22c2.94,-5.31 5.82,-10.65 8.66,-16.02l1.11 -2.1c2.63,-5.04 5.23,-10.11 7.78,-15.21l1.36 -2.74c2.42,-4.88 4.79,-9.78 7.12,-14.71l1.88 -4.02c2.15,-4.62 4.28,-9.25 6.35,-13.92l1.99 -4.55c2.08,-4.76 4.14,-9.52 6.14,-14.31l1.36 -3.35c2.07,-5.03 4.12,-10.06 6.09,-15.12l1.49 -3.91c1.94,-5.06 3.87,-10.14 5.72,-15.24l0.02 -0.05c5.97,-16.44 11.43,-33.15 16.42,-50.06l2.17 -7.31c1,-3.49 1.94,-7.01 2.89,-10.51 0.88,-3.22 1.78,-6.42 2.62,-9.65 0.87,-3.32 1.68,-6.67 2.5,-10.02 0.88,-3.52 1.75,-7.05 2.58,-10.59 0.72,-3.06 1.39,-6.13 2.08,-9.2 0.84,-3.79 1.68,-7.58 2.48,-11.39l1.89 -9.4c0.74,-3.71 1.45,-7.43 2.14,-11.15l1.74 -9.82c0.63,-3.62 1.22,-7.26 1.81,-10.9l1.56 -10.27 1.49 -10.58 1.35 -10.44 1.27 -11.06 1.04 -9.87c0.41,-4.24 0.77,-8.48 1.13,-12.73 0.23,-2.76 0.48,-5.54 0.68,-8.32 0.32,-4.37 0.58,-8.77 0.84,-13.17 0.17,-2.93 0.38,-5.85 0.52,-8.79 0.23,-4.85 0.39,-9.72 0.55,-14.59 0.07,-2.25 0.18,-4.5 0.23,-6.76 0.19,-7.28 0.28,-14.58 0.28,-21.91l0 -0.01 0 -0.01c0,-7.38 -0.09,-14.74 -0.28,-22.09l-0.04 -1.39c-0.18,-6.86 -0.45,-13.72 -0.78,-20.55l-0.13 -2.55c-0.35,-6.65 -0.77,-13.31 -1.27,-19.93l-0.14 -1.83c-0.51,-6.56 -1.08,-13.11 -1.74,-19.63l-0.29 -2.87c-0.65,-6.26 -1.35,-12.49 -2.13,-18.7l-0.4 -3.17c-0.79,-6.22 -1.67,-12.42 -2.6,-18.6l-0.44 -2.95c-0.99,-6.47 -2.07,-12.91 -3.21,-19.34l-0.38 -2.17c-1.21,-6.69 -2.48,-13.35 -3.83,-19.98l-0.4 -1.9c-1.29,-6.24 -2.64,-12.43 -4.06,-18.62l-0.79 -3.41c-1.35,-5.75 -2.74,-11.48 -4.19,-17.19l-1.05 -4.07c-1.46,-5.55 -2.95,-11.08 -4.5,-16.59l-1.05 -3.72c-1.59,-5.58 -3.25,-11.14 -4.96,-16.68l-1.18 -3.83c-1.71,-5.42 -3.46,-10.82 -5.26,-16.2l-1.4 -4.19c-1.74,-5.12 -3.55,-10.21 -5.38,-15.27l-2.46 -6.73c-1.66,-4.46 -3.34,-8.92 -5.08,-13.34l-2.87 -7.26c-1.71,-4.28 -3.44,-8.55 -5.22,-12.79l-2.91 -6.86c-1.86,-4.35 -3.76,-8.68 -5.69,-12.99l-2.79 -6.16c-1.99,-4.33 -3.99,-8.63 -6.04,-12.93l-2.85 -5.9c-2.01,-4.11 -4.04,-8.19 -6.09,-12.26l-3.38 -6.63c-1.95,-3.77 -3.94,-7.52 -5.94,-11.25l-5.03 -9.27 -5.02 -8.96 -5.64 -9.8 -4.79 -8.1 -6.17 -10.17 -4.56 -7.29c-2.21,-3.5 -4.44,-6.99 -6.69,-10.45l-4.32 -6.55c-2.45,-3.7 -4.92,-7.37 -7.42,-11.03l-0.38 -0.55 -5.61 -8.09 -5.5 -7.72 -0.21 -0.3 -5.8 -7.95c-3.32,-4.49 -6.67,-8.95 -10.07,-13.37l-2.15 -2.8c-3.32,-4.3 -6.71,-8.58 -10.12,-12.81l-2.39 -2.98c-3.52,-4.33 -7.08,-8.63 -10.67,-12.89l-2.15 -2.54c-3.51,-4.13 -7.05,-8.23 -10.63,-12.29l-3.04 -3.42 -4.76 -5.32z"/>
   <path class="fil4" d="M894.13 1638.59c-298.23,-29.25 -560.65,-180.27 -736.75,-402.97 0.02,0.08 0.03,0.17 0.05,0.24 4.16,14.89 9.3,29.35 14.22,43.91 3.13,9.26 5.95,18.68 9.38,27.8 5.01,13.35 10.76,26.31 16.41,39.33 4.3,9.93 8.46,19.94 13.12,29.67 5.83,12.21 12.18,24.12 18.56,36 5.43,10.1 10.87,20.19 16.68,30.05 6.54,11.14 13.43,22.05 20.46,32.87 6.59,10.15 13.37,20.17 20.37,30.04 7.07,9.99 14.31,19.84 21.8,29.52 7.97,10.27 16.25,20.28 24.67,30.19 7.34,8.68 14.67,17.33 22.35,25.7 9.73,10.61 19.92,20.8 30.17,30.92 7.1,7.02 14.05,14.2 21.38,20.97 12.85,11.86 26.26,23.08 39.8,34.16 5.39,4.42 10.54,9.12 16.03,13.41 39.71,30.91 82.11,58.52 126.86,82.31 3.12,1.66 6.38,3.05 9.51,4.67 19.25,9.94 38.83,19.31 58.87,27.83 5.39,2.3 10.96,4.26 16.4,6.45 18.16,7.28 36.52,14.15 55.27,20.22 6.42,2.1 12.96,3.92 19.46,5.87 18.18,5.43 36.57,10.38 55.24,14.64 6.95,1.6 13.97,3.05 21,4.47 18.68,3.79 37.58,6.95 56.67,9.53 4,0.54 8.01,1.04 12.02,1.52l0 -229.32z"/>
   <path class="fil4" d="M1105.86 1638.59l0 229.32c4.01,-0.48 8.03,-0.98 12.03,-1.52 19.09,-2.58 37.98,-5.74 56.67,-9.53 7.03,-1.42 14.04,-2.87 21,-4.47 18.67,-4.26 37.06,-9.21 55.24,-14.64 6.5,-1.95 13.03,-3.77 19.46,-5.87 18.74,-6.07 37.11,-12.94 55.26,-20.22 5.45,-2.19 11.02,-4.15 16.41,-6.45 20.03,-8.52 39.62,-17.89 58.86,-27.83 3.13,-1.62 6.4,-3.01 9.52,-4.67 44.75,-23.79 87.15,-51.41 126.86,-82.32 5.47,-4.27 10.59,-8.95 15.97,-13.36 13.57,-11.08 26.99,-22.33 39.85,-34.2 7.35,-6.78 14.31,-13.96 21.4,-20.99 10.25,-10.11 20.42,-20.29 30.15,-30.88 7.68,-8.39 15.03,-17.07 22.39,-25.75 8.4,-9.9 16.67,-19.89 24.63,-30.16 7.49,-9.67 14.73,-19.53 21.81,-29.52 7,-9.87 13.78,-19.89 20.37,-30.04 7.03,-10.82 13.91,-21.73 20.45,-32.87 5.81,-9.86 11.26,-19.95 16.69,-30.05 6.37,-11.88 12.73,-23.79 18.56,-36 4.66,-9.73 8.82,-19.74 13.12,-29.67 5.64,-13.02 11.39,-25.98 16.4,-39.33 3.44,-9.12 6.26,-18.54 9.39,-27.8 4.91,-14.56 10.05,-29.02 14.22,-43.91 0.02,-0.07 0.03,-0.16 0.05,-0.24 -176.1,222.7 -438.52,373.72 -736.76,402.97z"/>
  </g>
 </g>
</svg>
