<?xml version="1.0" encoding="UTF-8"?>
<!DOCTYPE svg PUBLIC "-//W3C//DTD SVG 1.1//EN" "http://www.w3.org/Graphics/SVG/1.1/DTD/svg11.dtd">
<!-- Creator: CorelDRAW 2017 -->
<svg xmlns="http://www.w3.org/2000/svg" xml:space="preserve" width="25mm" height="25mm" version="1.1" style="shape-rendering:geometricPrecision; text-rendering:geometricPrecision; image-rendering:optimizeQuality; fill-rule:evenodd; clip-rule:evenodd"
viewBox="0 0 2500 2500"
 xmlns:xlink="http://www.w3.org/1999/xlink"
 xmlns:serif="http://www.serif.com/">
 <defs>
  <style type="text/css">
   <![CDATA[
    .fil0 {fill:#1DA1F2;fill-rule:nonzero}
    .fil1 {fill:white;fill-rule:nonzero}
   ]]>
  </style>
 </defs>
 <g id="Capa_x0020_1">
  <metadata id="CorelCorpID_0Corel-Layer"/>
  <g id="_630465080">
   <path id="Dark_Blue" class="fil0" d="M2188 2500l-1875 0c-173,0 -313,-140 -313,-313l0 -1875c0,-173 140,-313 313,-313l1875 0c173,0 313,140 313,313l0 1875c0,173 -140,313 -313,313z"/>
   <path id="Logo_2014_FIXED" class="fil1" d="M960 1885c589,0 912,-489 912,-912 0,-14 0,-28 -1,-41 63,-45 117,-102 160,-166 -58,26 -119,43 -184,51 66,-39 117,-103 141,-178 -62,37 -131,63 -204,78 -59,-63 -142,-101 -234,-101 -177,0 -321,144 -321,321 0,25 3,49 8,73 -266,-13 -502,-141 -661,-335 -28,48 -43,103 -43,161 0,111 57,209 143,267 -53,-2 -102,-16 -145,-40l0 4c0,155 111,285 257,314 -27,8 -55,11 -84,11 -21,0 -41,-2 -60,-6 41,128 159,220 299,223 -110,86 -248,138 -398,138 -26,0 -51,-1 -76,-4 141,90 310,143 491,143z"/>
  </g>
 </g>
</svg>
