<?xml version="1.0" encoding="UTF-8"?>
<!DOCTYPE svg PUBLIC "-//W3C//DTD SVG 1.1//EN" "http://www.w3.org/Graphics/SVG/1.1/DTD/svg11.dtd">
<!-- Creator: CorelDRAW 2017 -->
<svg xmlns="http://www.w3.org/2000/svg" xml:space="preserve" width="25mm" height="25mm" version="1.1" style="shape-rendering:geometricPrecision; text-rendering:geometricPrecision; image-rendering:optimizeQuality; fill-rule:evenodd; clip-rule:evenodd"
viewBox="0 0 2500 2500"
 xmlns:xlink="http://www.w3.org/1999/xlink">
 <defs>
  <style type="text/css">
   <![CDATA[
    .fil1 {fill:#E82329}
    .fil2 {fill:white}
    .fil0 {fill:#E82329;fill-rule:nonzero}
    .fil3 {fill:white;fill-rule:nonzero}
   ]]>
  </style>
 </defs>
 <g id="Capa_x0020_1">
  <metadata id="CorelCorpID_0Corel-Layer"/>
  <path class="fil0" d="M568 -1c-55,3 -128,8 -160,15 -50,10 -98,25 -135,45 -48,23 -88,53 -123,88 -38,38 -68,78 -90,125 -20,38 -35,85 -45,135 -8,33 -13,105 -13,160 -3,23 -3,53 -3,68l0 1229 0 68c3,55 8,128 15,160 10,50 25,98 45,135 23,48 53,88 88,123 38,38 78,68 125,90 38,20 85,35 135,45 33,8 105,13 160,13 23,3 53,3 68,3l1229 0 68 0c55,-3 128,-8 160,-15 50,-10 98,-25 135,-45 48,-23 88,-53 123,-88 38,-38 68,-78 90,-125 20,-38 35,-85 45,-135 8,-33 13,-105 13,-160 3,-23 3,-53 3,-68l0 -1296c-3,-55 -8,-128 -15,-160 -10,-50 -25,-98 -45,-135 -23,-48 -53,-88 -88,-123 -38,-38 -78,-68 -125,-90 -38,-20 -85,-35 -135,-45 -33,-8 -105,-13 -160,-13 -23,-3 -53,-3 -68,-3l-1296 0 -1 -1z"/>
 </g>
 <g id="Capa_x0020_1_0">
  <metadata id="CorelCorpID_1Corel-Layer"/>
  <path class="fil1" d="M484 1876l1466 0c46,0 83,-46 83,-102l0 -1047c0,-56 -38,-102 -83,-102l-1466 0c-46,0 -83,46 -83,102l0 1047c0,56 37,102 83,102z"/>
  <path class="fil2" d="M1908 1876l41 0c46,0 83,-46 83,-102l0 -1047c0,-56 -38,-102 -83,-102l-41 0 -692 526 -692 -526 -41 0c-46,0 -83,46 -83,102l0 1047c0,56 37,102 83,102l41 0 0 -1095 692 526 692 -526 0 1095z"/>
  <path class="fil3" d="M495 1793l1466 0c14,0 27,-7 36,-19 11,-14 18,-33 18,-54l-8 -938c0,-21 -7,-41 -18,-54 -10,-12 -23,-19 -36,-19l-1466 0c-14,0 -27,7 -36,19 -11,14 -18,33 -18,54l8 938c0,21 7,41 18,54 10,12 23,19 36,19zm1455 112l-1466 0c-32,0 -61,-16 -81,-41 -19,-24 -31,-56 -31,-91l0 -1047c0,-35 12,-67 31,-91 21,-25 49,-41 81,-41l1466 0c32,0 61,16 81,41 19,24 31,56 31,91l0 1047c0,35 -12,67 -31,91 -21,25 -49,41 -81,41z"/>
 </g>
</svg>
