<?xml version="1.0" encoding="UTF-8"?>
<!DOCTYPE svg PUBLIC "-//W3C//DTD SVG 1.1//EN" "http://www.w3.org/Graphics/SVG/1.1/DTD/svg11.dtd">
<!-- Creator: CorelDRAW 2017 -->
<svg xmlns="http://www.w3.org/2000/svg" xml:space="preserve" width="25mm" height="25mm" version="1.1" style="shape-rendering:geometricPrecision; text-rendering:geometricPrecision; image-rendering:optimizeQuality; fill-rule:evenodd; clip-rule:evenodd"
viewBox="0 0 2500 2500"
 xmlns:xlink="http://www.w3.org/1999/xlink"
 xmlns:serif="http://www.serif.com/">
 <defs>
  <style type="text/css">
   <![CDATA[
    .fil1 {fill:white}
    .fil0 {fill:#25CF43;fill-rule:nonzero}
   ]]>
  </style>
 </defs>
 <g id="Capa_x0020_1">
  <metadata id="CorelCorpID_0Corel-Layer"/>
  <g id="_324430368">
   <path class="fil0" d="M569 2c-55,3 -128,8 -160,15 -50,10 -98,25 -135,45 -48,23 -88,53 -123,88 -38,38 -68,78 -90,125 -20,38 -35,85 -45,135 -8,33 -13,105 -13,160 -3,23 -3,53 -3,68l0 1229 0 68c3,55 8,128 15,160 10,50 25,98 45,135 23,48 53,88 88,123 38,38 78,68 125,90 38,20 85,35 135,45 33,8 105,13 160,13 23,3 53,3 68,3l1229 0 68 0c55,-3 128,-8 160,-15 50,-10 98,-25 135,-45 48,-23 88,-53 123,-88 38,-38 68,-78 90,-125 20,-38 35,-85 45,-135 8,-33 13,-105 13,-160 3,-23 3,-53 3,-68l0 -1296c-3,-55 -8,-128 -15,-160 -10,-50 -25,-98 -45,-135 -23,-48 -53,-88 -88,-123 -38,-38 -78,-68 -125,-90 -38,-20 -85,-35 -135,-45 -33,-8 -105,-13 -160,-13 -23,-3 -53,-3 -68,-3l-1296 0z"/>
   <g>
    <path class="fil1" d="M1701 1423c-23,-12 -138,-68 -159,-76 -21,-8 -37,-12 -52,12 -16,23 -60,76 -74,91 -14,16 -27,17 -50,6 -23,-12 -98,-36 -187,-115 -69,-62 -116,-138 -129,-161 -14,-23 -1,-36 10,-47 10,-10 23,-27 35,-41 12,-14 16,-23 23,-39 8,-16 4,-29 -2,-41 -6,-12 -52,-126 -72,-173 -19,-45 -38,-39 -52,-40 -14,-1 -29,-1 -45,-1 -16,0 -41,6 -62,29 -21,23 -81,80 -81,194 0,115 83,225 95,241 12,16 164,251 398,351 56,24 99,38 133,49 56,18 106,15 147,9 45,-7 138,-56 157,-111 19,-54 19,-101 14,-111 -6,-10 -21,-16 -45,-27l0 0 -2 1zm-424 579l0 0c-139,0 -275,-37 -394,-108l-28 -17 -293 77 78 -286 -18 -29c-77,-123 -118,-266 -118,-412 0,-426 347,-773 773,-773 207,0 401,81 546,227 146,146 227,341 227,547 0,426 -347,773 -773,773l0 0 -1 0zm658 -1431c-176,-176 -410,-273 -658,-273 -512,0 -930,418 -930,930 0,164 43,324 124,464l-132 482 493 -129c136,74 289,113 444,113l0 0c512,0 930,-417 930,-930 0,-249 -97,-482 -273,-658l1 0z"/>
   </g>
  </g>
 </g>
</svg>
