<?xml version="1.0" encoding="UTF-8"?>
<!DOCTYPE svg PUBLIC "-//W3C//DTD SVG 1.1//EN" "http://www.w3.org/Graphics/SVG/1.1/DTD/svg11.dtd">
<!-- Creator: CorelDRAW 2017 -->
<svg xmlns="http://www.w3.org/2000/svg" xml:space="preserve" width="25mm" height="25mm" version="1.1" style="shape-rendering:geometricPrecision; text-rendering:geometricPrecision; image-rendering:optimizeQuality; fill-rule:evenodd; clip-rule:evenodd"
viewBox="0 0 2500 2500"
 xmlns:xlink="http://www.w3.org/1999/xlink"
 xmlns:serif="http://www.serif.com/">
 <defs>
  <style type="text/css">
   <![CDATA[
    .fil1 {fill:#1777F2}
    .fil0 {fill:white}
   ]]>
  </style>
 </defs>
 <g id="Capa_x0020_1">
  <metadata id="CorelCorpID_0Corel-Layer"/>
  <g id="_312583832">
   <polygon class="fil0" points="470,2500 2194,2500 2194,187 470,187 "/>
   <path class="fil1" d="M2195 0c169,0 305,137 305,305l0 1890c0,169 -137,305 -305,305l-646 0 0 -942 325 0 62 -403 -387 0 0 -262c0,-110 54,-218 227,-218l176 0 0 -343c0,0 -160,-27 -312,-27 -319,0 -527,193 -527,543l0 307 -354 0 0 403 354 0 0 942 -808 0c-169,0 -305,-137 -305,-305l0 -1890c0,-169 137,-305 305,-305l1891 0 0 0 -1 0z"/>
  </g>
 </g>
</svg>
