<?xml version="1.0" encoding="UTF-8"?>
<!DOCTYPE svg PUBLIC "-//W3C//DTD SVG 1.1//EN" "http://www.w3.org/Graphics/SVG/1.1/DTD/svg11.dtd">
<!-- Creator: CorelDRAW 2017 -->
<svg xmlns="http://www.w3.org/2000/svg" xml:space="preserve" width="14.7mm" height="15mm" version="1.1" style="shape-rendering:geometricPrecision; text-rendering:geometricPrecision; image-rendering:optimizeQuality; fill-rule:evenodd; clip-rule:evenodd"
viewBox="0 0 1470 1500"
 xmlns:xlink="http://www.w3.org/1999/xlink">
 <defs>
  <style type="text/css">
   <![CDATA[
    .fil1 {fill:black}
    .fil2 {fill:#E7E8E8}
    .fil0 {fill:white}
    .fil8 {fill:url(#id0)}
    .fil6 {fill:url(#id1)}
    .fil5 {fill:url(#id2)}
    .fil3 {fill:url(#id3)}
    .fil4 {fill:url(#id4)}
    .fil7 {fill:url(#id5)}
    .fil11 {fill:url(#id6)}
    .fil13 {fill:url(#id7)}
    .fil14 {fill:url(#id8)}
    .fil9 {fill:url(#id9)}
    .fil10 {fill:url(#id10)}
    .fil12 {fill:url(#id11)}
   ]]>
  </style>
  <linearGradient id="id0" gradientUnits="userSpaceOnUse" x1="551" y1="790" x2="923" y2="983">
   <stop offset="0" style="stop-opacity:1; stop-color:#F1F2F2"/>
   <stop offset="0.988235" style="stop-opacity:1; stop-color:#90C74A"/>
   <stop offset="1" style="stop-opacity:1; stop-color:#90C74A"/>
  </linearGradient>
  <linearGradient id="id1" gradientUnits="userSpaceOnUse" x1="1053" y1="749" x2="1376" y2="749">
   <stop offset="0" style="stop-opacity:1; stop-color:#90C74A"/>
   <stop offset="0.0117647" style="stop-opacity:1; stop-color:#90C74A"/>
   <stop offset="1" style="stop-opacity:1; stop-color:#F1F2F2"/>
  </linearGradient>
  <linearGradient id="id2" gradientUnits="userSpaceOnUse" xlink:href="#id0" x1="618" y1="684" x2="1054" y2="684">
  </linearGradient>
  <linearGradient id="id3" gradientUnits="userSpaceOnUse" xlink:href="#id0" x1="94" y1="783" x2="367" y2="783">
  </linearGradient>
  <linearGradient id="id4" gradientUnits="userSpaceOnUse" xlink:href="#id0" x1="618" y1="886" x2="1054" y2="886">
  </linearGradient>
  <linearGradient id="id5" gradientUnits="userSpaceOnUse" xlink:href="#id0" x1="1018" y1="797" x2="622" y2="923">
  </linearGradient>
  <linearGradient id="id6" gradientUnits="userSpaceOnUse" xlink:href="#id0" x1="394" y1="504" x2="447" y2="820">
  </linearGradient>
  <linearGradient id="id7" gradientUnits="userSpaceOnUse" xlink:href="#id0" x1="402" y1="494" x2="467" y2="809">
  </linearGradient>
  <linearGradient id="id8" gradientUnits="userSpaceOnUse" xlink:href="#id0" x1="370" y1="558" x2="695" y2="558">
  </linearGradient>
  <linearGradient id="id9" gradientUnits="userSpaceOnUse" xlink:href="#id0" x1="351" y1="518" x2="416" y2="834">
  </linearGradient>
  <linearGradient id="id10" gradientUnits="userSpaceOnUse" xlink:href="#id0" x1="391" y1="511" x2="426" y2="827">
  </linearGradient>
  <linearGradient id="id11" gradientUnits="userSpaceOnUse" xlink:href="#id0" x1="300" y1="786" x2="605" y2="786">
  </linearGradient>
 </defs>
 <g id="Capa_x0020_1">
  <metadata id="CorelCorpID_0Corel-Layer"/>
  <g id="_632553520">
   <g>
    <path class="fil0" d="M735 1499c-29,0 -58,-7 -84,-21l-558 -293c-57,-30 -93,-89 -93,-152l0 -569c0,-64 36,-122 93,-152l558 -293c52,-27 115,-27 167,0l558 293c57,30 93,89 93,152l0 569c0,64 -36,122 -93,152l-558 293c-26,14 -54,21 -84,21z"/>
    <path class="fil1" d="M735 1474c-25,0 -49,-6 -72,-18l-558 -293c-49,-26 -80,-76 -80,-130l0 -569c0,-54 31,-104 80,-130l558 -293c45,-23 98,-23 143,0l558 293c49,26 80,76 80,130l0 569c0,55 -31,104 -80,130l-558 293c-23,12 -47,18 -72,18z"/>
   </g>
   <path class="fil2" d="M1107 647c-6,8 -8,17 -6,27 2,10 6,18 16,24 8,6 18,8 28,6 10,-2 19,-7 25,-15 6,-8 8,-17 6,-27 -2,-10 -7,-18 -16,-24 -8,-6 -18,-8 -28,-6 -10,2 -19,7 -25,15zm65 -95l0 0c4,-1 7,0 10,2 3,2 5,5 5,9l16 95c3,17 -1,33 -11,47 -10,14 -25,23 -43,26 -18,3 -34,-1 -50,-11 -15,-10 -24,-24 -27,-42 -3,-17 1,-33 11,-47 10,-14 25,-23 44,-26 17,-3 29,-1 40,5l-7 -43c-1,-4 0,-7 2,-10 2,-3 5,-5 9,-5l0 0 1 0z"/>
   <path class="fil2" d="M1281 609c-10,2 -19,7 -25,15 -6,8 -8,17 -6,27l0 1 60 -37c-6,-6 -16,-7 -28,-6zm62 1l0 0c1,2 2,3 2,5 0,2 0,3 0,5 -1,4 -3,6 -6,9 -9,6 -23,14 -39,25 -20,13 -31,20 -36,22 7,6 17,8 29,6 8,-1 16,-5 21,-10 5,-6 9,-12 10,-20 1,-6 5,-10 11,-11 5,-1 8,1 13,4 2,2 3,4 4,7 0,2 0,3 0,5 -2,13 -8,24 -19,34 -10,10 -22,16 -37,18 -18,3 -34,-1 -50,-11 -15,-10 -24,-24 -27,-42 -3,-17 1,-33 11,-47 10,-14 25,-23 44,-26 14,-2 26,0 38,5 11,5 21,13 28,23l1 -1z"/>
   <path class="fil3" d="M238 575l-66 0c-22,0 -40,7 -55,22 -16,15 -23,32 -23,53l0 266c0,21 7,38 23,53 16,15 33,22 55,22l66 0c36,0 66,-12 91,-36 25,-24 38,-53 38,-87 0,-41 -15,-71 -43,-92 24,-19 36,-47 36,-84 0,-32 -11,-60 -36,-83 -24,-23 -53,-34 -87,-34l1 0zm-76 75l0 0c0,-3 1,-5 3,-7 2,-2 4,-3 7,-3l66 0c15,0 28,5 39,15 10,10 16,22 16,37 0,15 -5,27 -16,37 -10,10 -23,15 -39,15l-76 0 0 -94zm3 274l0 0c-2,-2 -3,-4 -3,-7l0 -107 76 0c17,0 31,6 43,17 11,11 18,25 18,41 0,16 -6,30 -18,41 -11,11 -26,17 -43,17l-66 0c-3,0 -5,-1 -7,-3l0 1z"/>
   <path class="fil4" d="M1054 783l0 0c0,-1 0,-2 0,-3l-70 27c-5,30 -19,56 -42,78 -29,28 -65,42 -105,42 -34,0 -64,-10 -90,-29l-70 27c2,2 4,4 6,6 43,41 94,61 154,61 60,0 112,-20 154,-61 43,-41 64,-90 64,-147l0 -1z"/>
   <path class="fil5" d="M682 636c-43,41 -64,90 -64,147 0,3 0,7 0,10 24,-2 46,-4 68,-7 0,-1 0,-2 0,-3 0,-40 15,-73 44,-101 29,-28 65,-42 106,-42 42,0 76,14 106,42 24,23 38,49 42,79 22,-1 44,-2 69,-3 -5,-47 -26,-87 -63,-122 -43,-41 -94,-61 -154,-61 -60,0 -111,20 -154,61z"/>
   <path class="fil6" d="M1054 758c0,0 -1,0 -1,0 1,7 1,14 1,22l4 -2 319 -60 -324 40 1 0z"/>
   <path class="fil7" d="M605 805c-15,63 -43,142 -175,199l614 -234c-222,7 -309,24 -438,35l-1 0z"/>
   <path class="fil8" d="M605 805c-58,126 -175,199 -175,199l614 -234c-260,52 -438,35 -438,35l-1 0z"/>
   <path class="fil9" d="M391 648c13,-20 26,-36 41,-48 -20,-42 -43,-70 -51,-80 -24,-13 -53,-22 -89,-24 0,0 63,44 100,152l-1 0z"/>
   <path class="fil10" d="M398 667c23,76 32,180 4,320 91,-160 71,-291 38,-373 -20,17 -32,36 -41,53l-1 0z"/>
   <path class="fil11" d="M438 615c34,82 53,211 -38,373 0,0 101,-126 91,-272 -2,-17 -9,-67 -34,-115 -7,4 -14,9 -19,14z"/>
   <path class="fil12" d="M458 601c-7,4 -14,9 -19,14 34,82 53,211 -38,373 0,0 140,-68 158,-198 2,-16 4,-65 -18,-119 -3,-9 -7,-17 -13,-26 -10,-19 -24,-39 -43,-57 -11,4 -21,9 -30,15l2 -1z"/>
   <path class="fil13" d="M432 600c6,-5 11,-9 18,-13 -3,-5 -6,-9 -9,-14 -16,-21 -34,-39 -60,-53 9,10 31,38 51,80z"/>
   <path class="fil14" d="M381 520c9,10 31,38 51,80 6,-5 11,-9 18,-13 8,-6 17,-10 25,-14 -25,-22 -57,-42 -98,-58 0,0 1,2 4,4l0 1z"/>
  </g>
 </g>
</svg>
