<?xml version="1.0" encoding="UTF-8"?>
<!DOCTYPE svg PUBLIC "-//W3C//DTD SVG 1.1//EN" "http://www.w3.org/Graphics/SVG/1.1/DTD/svg11.dtd">
<!-- Creator: CorelDRAW 2017 -->
<svg xmlns="http://www.w3.org/2000/svg" xml:space="preserve" width="38mm" height="44mm" version="1.1" style="shape-rendering:geometricPrecision; text-rendering:geometricPrecision; image-rendering:optimizeQuality; fill-rule:evenodd; clip-rule:evenodd"
viewBox="0 0 3800 4400"
 xmlns:xlink="http://www.w3.org/1999/xlink">
 <defs>
  <style type="text/css">
   <![CDATA[
    .fil2 {fill:#5AAF96;fill-rule:nonzero}
    .fil1 {fill:#64C3A7;fill-rule:nonzero}
    .fil0 {fill:#776C60;fill-rule:nonzero}
    .fil4 {fill:#D15B45;fill-rule:nonzero}
    .fil3 {fill:#F58F75;fill-rule:nonzero}
   ]]>
  </style>
 </defs>
 <g id="Capa_x0020_1">
  <metadata id="CorelCorpID_0Corel-Layer"/>
  <g id="_661112704">
   <polygon class="fil0" points="2005.98,2102.51 2097.69,2102.51 2097.69,471.73 2005.98,471.73 "/>
   <path class="fil1" d="M2052.26 695.76l0 -695.76c0,0 -469.93,448.66 0,695.76z"/>
   <path class="fil2" d="M2052.26 695.76l0 -695.76c0,0 469.94,448.66 0,695.76z"/>
   <path class="fil1" d="M2026.69 991.23l-701.43 -358.95c0,0 694.62,-230.1 701.43,358.95z"/>
   <path class="fil2" d="M2026.69 991.23l-701.43 -358.95c0,0 209.66,692.81 701.43,358.95z"/>
   <path class="fil1" d="M2083.8 939.82l701.44 -358.96c0,0 -694.62,-230.11 -701.44,358.96z"/>
   <path class="fil2" d="M2083.8 939.82l701.44 -358.96c0,0 -209.66,692.81 -701.44,358.96z"/>
   <g>
    <path class="fil3" d="M2730.42 4399.99l-151.09 0 -257.75 -225.44c0,0 -455.19,41.75 -552.12,-155.19 0,0 -366.81,216.91 -506.5,-124.33 0,0 -344.95,61.72 -441.88,-258.63 0,0 -302.19,85.3 -528.36,-133.41 0,0 -273.69,-34.49 -290.79,-205.1 -15.21,-145.2 64.62,-225.07 64.62,-225.07 0,0 -96.93,-346.67 161.55,-511.83 0,0 21.85,-300.39 344.95,-352.12 0,0 54.17,-206.91 312.65,-145.2 0,0 193.85,-248.66 484.64,-145.2 0,0 290.79,-298.57 700.36,-25.41 0,0 474.2,-129.78 776.39,232.32 0,0 312.64,-124.33 484.65,165.17 0,0 377.26,124.33 452.33,486.43 75.08,362.09 -139.69,486.42 -139.69,486.42 0,0 96.93,186.05 0,321.27 -96.93,134.3 -183.4,134.3 -183.4,134.3 0,0 54.16,127.06 -54.17,209.64 -107.38,82.59 -248.03,59.9 -248.03,59.9 0,0 -83.62,248.66 -460.89,216.9l30.63 194.58 1.9 0z"/>
    <path class="fil4" d="M793.52 3652.72c-0.95,-1.8 -138.74,-215.08 48.46,-385.69 112.14,-102.54 235.67,-107.09 313.6,-77.13 76.02,29.03 125.44,93.47 129.24,167.88l-64.62 3.63c-2.85,-50.81 -36.11,-93.46 -88.38,-113.43 -59.87,-22.69 -154.9,-17.24 -245.17,64.43 -148.25,135.22 -42.77,300.39 -38.01,307.65l-55.12 33.58 0 -0.92z"/>
    <path class="fil4" d="M2101.11 2604.55c-112.13,0 -233.77,-58.99 -273.68,-232.33 -85.52,-370.26 228.07,-506.39 231.87,-508.2l25.66 57.17 -13.3 -28.13 13.3 28.13c-11.4,4.54 -267.98,118.89 -194.81,437.42 46.56,201.48 208.11,187.86 256.58,178.78 94.08,-17.24 186.25,-88.94 172.95,-166.98l63.67 -9.98c19.96,117.98 -101.68,215.98 -225.22,238.68 -19,3.63 -38.01,5.44 -57.97,5.44l0.95 0z"/>
    <path class="fil4" d="M3627.28 3289.73c-11.41,-7.26 -270.84,-171.53 -443.79,-3.63l-45.61 -43.57c210.01,-205.1 522.66,-6.35 526.46,-3.63l-36.11 51.73 18.05 -25.41 -18.05 25.41 -0.95 -0.9z"/>
    <path class="fil4" d="M1574.65 2542.84l-63.66 -12.71c19,-84.39 59.86,-144.29 122.58,-178.78 104.53,-57.17 229.97,-17.24 234.72,-15.42l-20.9 58.98c-0.95,0 -103.58,-32.67 -182.46,10.89 -45.61,24.51 -76.02,70.79 -90.28,137.04z"/>
    <path class="fil4" d="M268.01 3247.98c-44.66,0 -84.58,-9.98 -119.74,-29.05 -86.47,-47.18 -111.18,-135.22 -112.13,-138.85l62.72 -16.32 -31.36 8.16 31.36 -8.16c0,0.9 19.95,67.15 82.67,100.73 43.72,23.59 99.78,27.23 166.3,9.07l17.11 59.9c-34.21,9.07 -65.57,13.6 -95.98,13.6l-0.95 0.92z"/>
    <path class="fil4" d="M878.09 2882.25l-59.86 -23.59c1.9,-4.55 49.41,-113.44 149.19,-148.84 53.22,-19.06 111.18,-13.61 170.1,16.33l-29.46 55.36c-43.71,-21.78 -81.72,-26.31 -117.83,-13.61 -72.22,25.42 -111.19,113.44 -111.19,113.44l-0.95 0.91z"/>
    <path class="fil4" d="M2006.09 3252.51c-3.81,0 -7.61,0 -11.41,0 -194.81,-6.35 -275.58,-160.62 -278.43,-166.98l57.97 -27.22c2.85,5.45 67.47,127.05 222.36,132.49 153.95,5.45 219.52,-129.77 220.47,-131.59l58.92 25.42c-2.85,7.26 -80.78,167.88 -269.88,167.88z"/>
    <path class="fil4" d="M2280.72 3391.36c-146.35,0 -202.41,-117.07 -211.92,-182.4l63.67 -9.08c1.9,14.52 25.66,140.66 167.25,127.96l5.71 61.71c-8.56,0.91 -17.11,0.91 -25.66,0.91l0.95 0.9z"/>
    <path class="fil4" d="M3192.04 3994.86l-63.67 -13.61c1.91,-7.26 38.02,-189.68 -191.95,-285.86 -100.73,-42.67 -186.26,-38.12 -241.38,12.69 -42.76,39.03 -51.31,90.75 -44.66,108l-60.82 22.69c-17.1,-43.57 0,-120.7 59.87,-175.15 43.71,-39.93 141.59,-96.2 311.69,-24.51 279.39,117.07 229.02,353.93 229.02,355.75l1.9 0z"/>
    <path class="fil4" d="M3006.74 2661.72c-2.85,-96.19 -28.51,-164.26 -78.88,-202.38 -63.67,-48.09 -148.24,-32.66 -149.19,-31.76l-13.3 -60.8c4.75,-0.9 114.03,-22.69 201.46,43.56 66.52,49.92 100.73,134.31 104.53,249.57l-64.62 1.81z"/>
    <path class="fil4" d="M3272.82 2820.54c-63.67,-71.69 -130.19,-107.09 -199.56,-106.18 -114.99,1.81 -202.41,104.36 -203.36,105.27l-50.37 -39.02c4.75,-5.45 106.43,-127.06 251.83,-128.87 89.32,-1.82 173.9,41.75 250.87,127.96l-49.41 39.93 0 0.91z"/>
    <path class="fil4" d="M907.55 2375.85c-63.67,-52.63 -98.83,-110.71 -102.63,-174.24 -6.65,-90.75 54.17,-156.09 57.02,-158.82l48.46 41.75 -23.75 -20.87 23.75 20.87c0,0.91 -44.66,49.92 -39.91,114.35 3.8,45.37 30.41,89.84 80.78,130.68l-41.82 47.2 -1.9 -0.92z"/>
    <path class="fil4" d="M647.17 2403.99l-60.81 -20.87c60.81,-164.27 252.77,-166.08 262.28,-166.08 0,0 0,0 0,0l0 30.86 0 30.85c-6.66,0 -155.85,1.82 -201.47,125.24z"/>
    <path class="fil4" d="M511.28 2742.49c-98.83,-220.52 -263.23,-157 -269.88,-154.27l-25.66 -57.18c3.8,-1.81 85.53,-35.39 179.61,0 74.12,28.13 133.99,90.75 175.8,186.04l-59.87 24.51 0 0.9z"/>
    <path class="fil4" d="M1741.91 4035.7c-0.95,-1.82 -126.39,-202.38 96.92,-362.1l38.97 49.92c-176.76,126.14 -84.58,273.16 -80.78,279.51l-55.11 32.67z"/>
   </g>
   <path class="fil1" d="M2022.56 1588.5l-802.97 -410.92c0,0 795.17,-263.41 802.97,410.92z"/>
   <path class="fil2" d="M2022.56 1588.5l-802.97 -410.92c0,0 240.01,793.1 802.97,410.92z"/>
   <path class="fil1" d="M2087.93 1529.64l802.98 -410.92c0,0 -795.17,-263.42 -802.98,410.92z"/>
   <path class="fil2" d="M2087.93 1529.64l802.98 -410.92c0,0 -240.01,793.1 -802.98,410.92z"/>
  </g>
 </g>
</svg>
