<?xml version="1.0" encoding="UTF-8"?>
<!DOCTYPE svg PUBLIC "-//W3C//DTD SVG 1.1//EN" "http://www.w3.org/Graphics/SVG/1.1/DTD/svg11.dtd">
<!-- Creator: CorelDRAW 2017 -->
<svg xmlns="http://www.w3.org/2000/svg" xml:space="preserve" width="20mm" height="20mm" version="1.1" style="shape-rendering:geometricPrecision; text-rendering:geometricPrecision; image-rendering:optimizeQuality; fill-rule:evenodd; clip-rule:evenodd"
viewBox="0 0 2000 2000"
 xmlns:xlink="http://www.w3.org/1999/xlink">
 <defs>
  <style type="text/css">
   <![CDATA[
    .fil0 {fill:#E3A53F;fill-rule:nonzero}
    .fil2 {fill:#64C3A7;fill-rule:nonzero}
    .fil4 {fill:#21B9FF;fill-rule:nonzero}
    .fil6 {fill:#4B4B4D;fill-rule:nonzero}
    .fil7 {fill:#C261FF;fill-rule:nonzero}
    .fil3 {fill:#C3B69E;fill-rule:nonzero}
    .fil9 {fill:#D43D3E;fill-rule:nonzero}
    .fil5 {fill:#E6E7E8;fill-rule:nonzero}
    .fil1 {fill:#FEFEFE;fill-rule:nonzero}
    .fil8 {fill:white;fill-rule:nonzero}
   ]]>
  </style>
 </defs>
 <g id="Capa_x0020_1">
  <metadata id="CorelCorpID_0Corel-Layer"/>
  <g id="_943975504">
   <path class="fil0" d="M716.91 0l1113.35 0c93.67,0 169.74,75.94 169.74,168.07l0 631.8c0,92.75 -76.7,168.07 -169.74,168.07l-50.93 0 81.1 235.29 -325.64 -235.29 -817.88 0c-93.67,0 -169.74,-75.94 -169.74,-168.07l0 -631.8c0,-92.74 76.7,-168.07 169.74,-168.07z"/>
   <path class="fil1" d="M782.29 315.6l982.6 0c21.36,0 38.96,-17.44 38.96,-38.6l0 -13.07c0,-21.17 -17.6,-38.6 -38.96,-38.6l-982.6 0c-21.37,0 -38.97,17.43 -38.97,38.6l0 13.07c0,21.16 17.6,38.6 38.97,38.6z"/>
   <path class="fil1" d="M782.29 519.14l982.6 0c21.36,0 38.96,-17.43 38.96,-38.59l0 -13.7c0,-21.17 -17.6,-38.59 -38.96,-38.59l-982.6 0c-21.37,0 -38.97,17.42 -38.97,38.59l0 13.7c0,21.16 17.6,38.59 38.97,38.59z"/>
   <path class="fil1" d="M782.29 722.07l982.6 0c21.36,0 38.96,-17.43 38.96,-38.6l0 -13.08c0,-21.16 -17.6,-38.58 -38.96,-38.58l-982.6 0c-21.37,0 -38.97,17.42 -38.97,38.58l0 13.08c0,21.17 17.6,38.6 38.97,38.6z"/>
  </g>
  <g id="_943970416">
   <path class="fil2" d="M1358.88 725.7l-1179.12 0c-99.2,0 -179.76,80.43 -179.76,178l0 669.14c0,98.21 81.23,177.99 179.76,177.99l53.93 0 -85.89 249.18 344.89 -249.18 866.19 0c99.21,0 179.76,-80.43 179.76,-177.99l0 -669.14c0,-98.22 -81.23,-178 -179.76,-178z"/>
   <path class="fil1" d="M1289.63 1059.94l-1040.63 0c-22.64,0 -41.28,-18.46 -41.28,-40.88l0 -13.83c0,-22.43 18.64,-40.88 41.28,-40.88l1040.63 0c22.64,0 41.29,18.45 41.29,40.88l0 13.83c0,22.42 -18.65,40.88 -41.29,40.88z"/>
   <path class="fil1" d="M1289.63 1275.52l-1040.63 0c-22.64,0 -41.28,-18.47 -41.28,-40.88l0 -14.5c0,-22.42 18.64,-40.87 41.28,-40.87l1040.63 0c22.64,0 41.29,18.45 41.29,40.87l0 14.5c0,22.41 -18.65,40.88 -41.29,40.88z"/>
   <path class="fil1" d="M1289.63 1490.42l-1040.63 0c-22.64,0 -41.28,-18.46 -41.28,-40.87l0 -13.84c0,-22.42 18.64,-40.87 41.28,-40.87l1040.63 0c22.64,0 41.29,18.45 41.29,40.87l0 13.84c0,22.41 -18.65,40.87 -41.29,40.87z"/>
  </g>
  <g id="_1004101552">
   <path class="fil3" d="M1654.04 1891.34c-18.28,-2.66 -36.57,-4.26 -55.94,-4.26 -19.9,0 -39.28,1.6 -58.1,4.26 19.37,-1.59 39.27,-2.13 59.71,-2.13 18.29,0 36.59,0.54 54.33,2.13z"/>
   <path class="fil4" d="M1970.92 1627.13c0,205.89 -168.66,372.88 -376.59,372.88 -207.92,0 -376.57,-166.99 -376.57,-372.88 0,-205.87 168.65,-372.87 376.57,-372.87 207.93,0 376.59,167 376.59,372.87z"/>
   <path class="fil3" d="M1594.87 1627.13c0,0 -0.54,0 -0.54,0 0,0 0.54,0 0.54,0l0 0z"/>
   <path class="fil5" d="M1748.2 1489.7c0,-1.6 0.53,-3.72 0.53,-5.33 0,1.61 0,3.73 -0.53,5.33zm-1.09 7.46c0,-1.59 0.55,-2.66 0.55,-4.26 0,1.6 -0.55,2.67 -0.55,4.26zm-1.61 7.46c0,-1.07 0.54,-2.66 0.54,-3.73 0,1.07 -0.54,2.66 -0.54,3.73zm-1.61 7.45c0.54,-1.06 0.54,-2.12 1.08,-3.72 -0.54,1.06 -0.54,2.13 -1.08,3.72zm-2.15 7.46c0.54,-1.06 0.54,-2.12 1.08,-3.19 -0.54,1.07 -0.54,2.13 -1.08,3.19zm-2.69 6.93c0.54,-1.07 0.54,-1.6 1.07,-2.66 -0.53,1.06 -0.53,2.13 -1.07,2.66zm-2.69 6.93c0.54,-0.53 0.54,-1.6 1.08,-2.67 -0.54,1.07 -0.54,1.6 -1.08,2.67zm-3.23 6.92c0.54,-0.53 0.54,-1.6 1.08,-2.13 -0.54,0.53 -0.54,1.6 -1.08,2.13zm-3.23 6.39c0.54,-0.53 0.54,-1.07 1.08,-1.59 -0.54,0.52 -0.54,1.06 -1.08,1.59zm-3.76 6.39c0.54,-0.52 0.54,-1.07 1.07,-1.6 -0.53,0.53 -0.53,1.08 -1.07,1.6zm-3.77 6.4c0,-0.54 0.54,-0.54 0.54,-1.07 0,0.53 -0.54,0.53 -0.54,1.07zm-4.3 5.85c0,0 0.54,-0.53 0.54,-0.53 0,0 -0.54,0.53 -0.54,0.53zm-4.31 5.86c0,0 0.54,-0.53 0.54,-0.53 0,0 -0.54,0.53 -0.54,0.53zm-4.84 5.33c0,0 0,0 0.54,-0.53 0,0 0,0 -0.54,0.53zm39.81 -94.82c0,-2.66 0,-5.32 0,-7.99 0,2.67 0,5.33 0,7.99zm-45.19 100.15c0,0 0,0 0,0 0,0 0,0 0,0zm-86.61 -259.42c-7.53,-0.53 -14.53,-0.53 -22.06,-0.53 -8.07,0 -16.14,0.53 -24.21,1.07 -74.23,11.18 -130.72,74.57 -130.72,151.28 0,84.69 69.4,152.87 154.39,152.87 0,0 0.54,0 0.54,0l0 0c85,0.54 153.86,68.72 153.86,152.88 0,84.16 -68.86,152.88 -153.86,152.88l0 2.13c171.08,0 309.87,-137.43 309.87,-306.82 0,-161.94 -126.95,-294.57 -287.81,-305.76z"/>
   <path class="fil6" d="M1749.27 1780.01c0,-84.69 -69.4,-152.88 -154.4,-152.88 -85.53,0 -154.4,-68.71 -154.4,-152.87 0,-76.71 57.03,-140.1 130.73,-151.28 -159.77,12.25 -285.66,144.35 -285.66,305.75 0,169.39 138.8,306.82 309.88,306.82l0 -2.13c84.99,-0.53 153.85,-68.71 153.85,-152.87l0 -0.54z"/>
   <path class="fil6" d="M1530.86 1474.26c0,34.62 28.51,62.86 63.47,62.86 34.97,0 63.48,-28.24 63.48,-62.86 0,-31.43 -23.67,-57.53 -54.33,-62.32 -3.22,0 -5.91,-0.55 -9.15,-0.55 -3.22,0 -6.45,0 -9.67,0.55 -30.67,4.79 -53.8,30.89 -53.8,62.32z"/>
   <path class="fil5" d="M1530.86 1780.01c0,34.62 28.51,62.86 63.47,62.86 34.97,0 63.48,-28.24 63.48,-62.86 0,-31.43 -23.67,-57.53 -54.33,-62.32 -3.22,0 -5.91,-0.53 -9.15,-0.53 -3.22,0 -6.45,0 -9.67,0.53 -30.67,4.79 -53.8,30.89 -53.8,62.32z"/>
  </g>
  <g id="_943993776">
   <path class="fil7" d="M942.55 492.01c0,206.22 -168.95,373.5 -377.23,373.5 -208.28,0 -377.22,-167.28 -377.22,-373.5 0,-206.25 168.94,-373.53 377.22,-373.53 208.28,0 377.23,167.28 377.23,373.53z"/>
   <path class="fil8" d="M876.81 492.01c0,170.21 -139.58,308.41 -311.49,308.41 -171.9,0 -311.48,-138.2 -311.48,-308.41 0,-170.22 139.58,-308.42 311.48,-308.42 171.91,0 311.49,138.2 311.49,308.42z"/>
   <path class="fil8" d="M721.06 443.98l-107.77 0 0 -106.72c0,-9.6 -7.56,-17.08 -17.25,-17.08l-62.51 0c-9.7,0 -17.25,7.48 -17.25,17.08l0 106.72 -107.77 0c-9.7,0 -17.25,7.47 -17.25,17.08l0 61.89c0,9.61 7.55,17.07 17.25,17.07l107.77 0 0 106.72c0,9.6 7.55,17.08 17.25,17.08l62.51 0c9.69,0 17.25,-7.48 17.25,-17.08l0 -106.72 107.77 0c9.71,0 17.25,-7.46 17.25,-17.07l0 -61.89c0,-9.61 -7.54,-17.08 -17.25,-17.08z"/>
   <path class="fil9" d="M721.06 443.98l-107.77 0 0 -106.72c0,-9.6 -7.56,-17.08 -17.25,-17.08l-62.51 0c-9.7,0 -17.25,7.48 -17.25,17.08l0 106.72 -107.77 0c-9.7,0 -17.25,7.47 -17.25,17.08l0 61.89c0,9.61 7.55,17.07 17.25,17.07l107.77 0 0 106.72c0,9.6 7.55,17.08 17.25,17.08l62.51 0c9.69,0 17.25,-7.48 17.25,-17.08l0 -106.72 107.77 0c9.71,0 17.25,-7.46 17.25,-17.07l0 -61.89c0,-9.61 -7.54,-17.08 -17.25,-17.08z"/>
  </g>
 </g>
</svg>
