<?xml version="1.0" encoding="UTF-8"?>
<!DOCTYPE svg PUBLIC "-//W3C//DTD SVG 1.1//EN" "http://www.w3.org/Graphics/SVG/1.1/DTD/svg11.dtd">
<!-- Creator: CorelDRAW 2017 -->
<svg xmlns="http://www.w3.org/2000/svg" xml:space="preserve" width="40mm" height="47mm" version="1.1" style="shape-rendering:geometricPrecision; text-rendering:geometricPrecision; image-rendering:optimizeQuality; fill-rule:evenodd; clip-rule:evenodd"
viewBox="0 0 4000 4700"
 xmlns:xlink="http://www.w3.org/1999/xlink">
 <defs>
  <style type="text/css">
   <![CDATA[
    .fil2 {fill:#FEFEFE;fill-rule:nonzero}
    .fil0 {fill:#FECA6A;fill-rule:nonzero}
    .fil1 {fill:#E3A53F;fill-rule:nonzero}
    .fil5 {fill:#53B9E9;fill-rule:nonzero}
    .fil3 {fill:#5C5D5C;fill-rule:nonzero}
    .fil6 {fill:#3BA9D6;fill-rule:nonzero}
    .fil4 {fill:#2A95BF;fill-rule:nonzero}
   ]]>
  </style>
 </defs>
 <g id="Capa_x0020_1">
  <metadata id="CorelCorpID_0Corel-Layer"/>
  <g id="_950459696">
   <polygon class="fil0" points="0,3693 2666,3693 2666,335 0,335 "/>
   <polygon class="fil1" points="370,3474 2488,3474 2488,688 370,688 "/>
   <polygon class="fil2" points="274,3330 2392,3330 2392,543 274,543 "/>
   <path class="fil3" d="M1752 276c-38,0 -74,-22 -89,-57 -54,-129 -182,-219 -330,-219 -149,0 -276,90 -330,219 -15,35 -50,57 -89,57l-234 0c-53,0 -96,43 -96,95l0 301c0,53 43,96 96,96l1306 0c53,0 96,-43 96,-96l0 -301c0,-53 -43,-95 -96,-95l-234 0z"/>
   <path class="fil3" d="M437 1039l0 279 279 0 0 -279 -279 0zm217 217l-156 0 0 -156 156 0 0 156z"/>
   <path class="fil3" d="M437 1626l0 279 279 0 0 -279 -279 0zm217 217l-156 0 0 -156 156 0 0 156z"/>
   <path class="fil3" d="M437 2213l0 279 279 0 0 -279 -279 0zm217 217l-156 0 0 -156 156 0 0 156z"/>
   <path class="fil3" d="M437 2800l0 279 279 0 0 -279 -279 0zm217 217l-156 0 0 -156 156 0 0 156z"/>
   <polygon class="fil3" points="936,1238 2164,1238 2164,1140 936,1140 "/>
   <polygon class="fil3" points="936,1823 2164,1823 2164,1725 936,1725 "/>
   <polygon class="fil3" points="936,2408 2164,2408 2164,2310 936,2310 "/>
   <polygon class="fil3" points="936,2993 2164,2993 2164,2895 936,2895 "/>
   <g>
    <path class="fil4" d="M1766 1336l-115 0c-122,0 -222,99 -222,222l0 2610c0,122 99,222 222,222l115 0 0 -3053z"/>
    <path class="fil4" d="M3778 1647l-2127 0c-122,0 -222,99 -222,222l0 2610c0,122 99,222 222,222l2127 0c123,0 222,-99 222,-222l0 -2610c0,-122 -99,-222 -222,-222z"/>
    <path class="fil4" d="M3722 1728l-2014 0c-116,0 -210,94 -210,210l0 2471c0,116 94,210 210,210l2014 0c116,0 210,-94 210,-210l0 -2471c0,-116 -94,-210 -210,-210z"/>
    <path class="fil2" d="M1770 4463l0 156 1952 0c98,0 181,-66 204,-156l-2155 0z"/>
    <path class="fil5" d="M3778 1336l-2127 0c-122,0 -222,99 -222,222l0 2610c0,122 99,222 222,222l2127 0c123,0 222,-99 222,-222l0 -2610c0,-122 -99,-222 -222,-222z"/>
    <path class="fil4" d="M1651 4389c0,0 0,0 0,0 0,0 0,0 0,0zm-1 0c0,0 0,0 0,0 0,0 0,0 0,0zm-1 0c0,0 0,0 0,0 0,0 0,0 0,0zm-1 0c0,0 0,0 0,0 0,0 0,0 0,0zm-1 0c0,0 0,0 0,0 0,0 0,0 0,0zm-1 0c0,0 0,0 0,0 0,0 0,0 0,0zm-1 0l0 0 0 0zm-1 0c0,0 0,0 0,0 0,0 0,0 0,0zm-1 0l0 0 0 0zm-1 0c0,0 0,0 0,0 0,0 0,0 0,0zm-1 0l0 0 0 0zm-1 0c0,0 0,0 0,0 0,0 0,0 0,0zm-1 0c0,0 0,0 0,0 0,0 0,0 0,0zm-1 0c0,0 0,0 0,0 0,0 0,0 0,0zm-1 0c0,0 0,0 0,0 0,0 0,0 0,0zm-1 0c0,0 0,0 0,0 0,0 0,0 0,0zm-1 0l0 0c0,0 0,0 0,0zm-1 0c0,0 0,0 0,0 0,0 0,0 0,0zm-2 0c0,0 0,0 0,0 0,0 0,0 0,0zm-1 0l0 0 0 0zm-2 0c0,0 0,0 0,0 0,0 0,0 0,0zm-3 0l0 0z"/>
    <path class="fil6" d="M3778 4389l-2127 0 0 0c0,0 -1,0 -1,0 0,0 0,0 0,0 0,0 0,0 -1,0 0,0 0,0 0,0 0,0 -1,0 -1,0 0,0 0,0 0,0 0,0 -1,0 -1,0 0,0 0,0 0,0 0,0 -1,0 -1,0 0,0 0,0 0,0 0,0 -1,0 -1,0 0,0 0,0 0,0 0,0 0,0 -1,0l0 0c0,0 -1,0 -1,0 0,0 0,0 0,0 0,0 -1,0 -1,0l0 0c0,0 0,0 -1,0 0,0 0,0 0,0 0,0 -1,0 -1,0l0 0c0,0 -1,0 -1,0 0,0 0,0 0,0 0,0 -1,0 -1,0 0,0 0,0 0,0 0,0 -1,0 -1,0 0,0 0,0 0,0 0,0 0,0 -1,0 0,0 0,0 0,0 0,0 -1,0 -1,0 0,0 0,0 0,0 0,0 -1,0 -1,0 0,0 0,0 0,0 0,0 0,0 -1,0 0,0 0,0 0,0 -1,0 -1,0 -2,0 0,0 0,0 0,0 0,0 -1,0 -1,0l0 0c-1,0 -1,0 -2,0 0,0 0,0 0,0 -1,0 -2,0 -3,0l0 0c-73,-8 -136,-52 -169,-114 1952,-169 2190,-2325 2218,-2938l103 0c123,0 222,99 222,222l0 2610c0,122 -99,222 -222,222z"/>
    <path class="fil2" d="M2926 2624l0 -231c3,-59 57,-87 108,-100 48,-12 93,-12 93,-12l0 -60 -562 0 0 60c0,0 45,0 93,12 51,13 104,41 108,100l0 998c-3,59 -57,87 -108,100 -48,12 -93,12 -93,12l0 60 562 0 0 -60c0,0 -45,0 -93,-12 -51,-13 -104,-41 -108,-100l0 -767z"/>
    <path class="fil2" d="M2050 2235c0,0 324,80 364,547 28,326 301,441 301,441 0,0 -441,-37 -475,-415 -34,-378 6,-350 -189,-572z"/>
    <path class="fil2" d="M3664 2235c0,0 -324,80 -364,547 -28,326 -301,441 -301,441 0,0 441,-37 475,-415 34,-378 -6,-350 189,-572z"/>
   </g>
  </g>
 </g>
</svg>
