<?xml version="1.0" encoding="UTF-8"?>
<!DOCTYPE svg PUBLIC "-//W3C//DTD SVG 1.1//EN" "http://www.w3.org/Graphics/SVG/1.1/DTD/svg11.dtd">
<!-- Creator: CorelDRAW 2017 -->
<svg xmlns="http://www.w3.org/2000/svg" xml:space="preserve" width="20mm" height="20mm" version="1.1" style="shape-rendering:geometricPrecision; text-rendering:geometricPrecision; image-rendering:optimizeQuality; fill-rule:evenodd; clip-rule:evenodd"
viewBox="0 0 2000 2000"
 xmlns:xlink="http://www.w3.org/1999/xlink">
 <defs>
  <style type="text/css">
   <![CDATA[
    .fil1 {fill:#EE3F44}
    .fil3 {fill:white}
    .fil0 {fill:#EE3F44;fill-rule:nonzero}
    .fil2 {fill:white;fill-rule:nonzero}
   ]]>
  </style>
 </defs>
 <g id="Capa_x0020_1">
  <metadata id="CorelCorpID_0Corel-Layer"/>
  <g id="_837449792">
   <path class="fil0" d="M1000 2000l0 0c-552.29,0 -999.99,-447.7 -999.99,-1000l0 0c0,-552.29 447.7,-1000 999.99,-1000l0 0c552.3,0 1000,447.71 1000,1000l0 0c0,552.3 -447.7,1000 -1000,1000z"/>
   <path class="fil1" d="M474.56 1425.72l997.12 0c31.22,0 56.72,-31.36 56.72,-69.69l0 -712.06c0,-38.33 -25.52,-69.69 -56.72,-69.69l-997.12 0c-31.2,0 -56.72,31.38 -56.72,69.69l0 712.06c0,38.3 25.5,69.69 56.72,69.69z"/>
   <path class="fil2" d="M474.57 1405.95l997.11 0c9.4,0 18.19,-5.03 24.78,-13.12 7.51,-9.23 12.18,-22.25 12.18,-36.8l0 -712.07c0,-14.54 -4.67,-27.56 -12.19,-36.79 -6.59,-8.1 -15.38,-13.13 -24.77,-13.13l-997.11 0c-9.38,0 -18.17,5.03 -24.77,13.13 -7.51,9.24 -12.19,22.26 -12.19,36.79l0 712.07c0,14.54 4.67,27.56 12.19,36.8 6.58,8.09 15.38,13.12 24.77,13.12zm997.11 39.53l-997.11 0c-21.82,0 -41.4,-10.66 -55.35,-27.8 -13.03,-16.02 -21.13,-37.87 -21.13,-61.65l0 -712.07c0,-23.76 8.09,-45.62 21.14,-61.64 13.95,-17.14 33.53,-27.8 55.34,-27.8l997.11 0c21.81,0 41.39,10.65 55.34,27.8 13.04,16.01 21.14,37.86 21.14,61.64l0 712.07c0,23.78 -8.1,45.64 -21.13,61.65 -13.95,17.15 -33.54,27.8 -55.35,27.8z"/>
   <path class="fil3" d="M1443.59 1425.71l28.09 0c31.23,0 56.72,-31.35 56.72,-69.68l0 -712.07c0,-38.32 -25.52,-69.68 -56.72,-69.68l-28.09 0 -470.47 357.53 -470.46 -357.53 -28.09 0c-31.21,0 -56.72,31.36 -56.72,69.68l0 712.07c0,38.33 25.49,69.68 56.72,69.68l28.09 0 0 -744.9 470.46 357.53 470.47 -357.54 0 744.91z"/>
  </g>
 </g>
</svg>
