<?xml version="1.0" encoding="UTF-8"?>
<!DOCTYPE svg PUBLIC "-//W3C//DTD SVG 1.1//EN" "http://www.w3.org/Graphics/SVG/1.1/DTD/svg11.dtd">
<!-- Creator: CorelDRAW 2017 -->
<svg xmlns="http://www.w3.org/2000/svg" xml:space="preserve" width="20mm" height="20mm" version="1.1" style="shape-rendering:geometricPrecision; text-rendering:geometricPrecision; image-rendering:optimizeQuality; fill-rule:evenodd; clip-rule:evenodd"
viewBox="0 0 2000 2000"
 xmlns:xlink="http://www.w3.org/1999/xlink">
 <defs>
  <style type="text/css">
   <![CDATA[
    .fil1 {fill:white;fill-rule:nonzero}
    .fil0 {fill:url(#id0)}
   ]]>
  </style>
  <radialGradient id="id0" gradientUnits="userSpaceOnUse" gradientTransform="matrix(2.66552 -2.56302 -2.563 -2.66553 5226 7177)" cx="-59.99" cy="2000" r="1265.17" fx="-59.99" fy="2000">
   <stop offset="0" style="stop-opacity:1; stop-color:#F3EC5C"/>
   <stop offset="0.239216" style="stop-opacity:1; stop-color:#F58955"/>
   <stop offset="0.490196" style="stop-opacity:1; stop-color:#F24B80"/>
   <stop offset="1" style="stop-opacity:1; stop-color:#2358BA"/>
  </radialGradient>
 </defs>
 <g id="Capa_x0020_1">
  <metadata id="CorelCorpID_0Corel-Layer"/>
  <g id="_819404352">
   <path class="fil0" d="M1000 1999.99l0 0c-552.29,0 -999.99,-447.7 -999.99,-1000l0 0c0,-552.29 447.7,-999.99 999.99,-999.99l0 0c552.3,0 1000.01,447.7 1000.01,999.99l0 0c0,552.3 -447.71,1000 -1000.01,1000z"/>
   <path class="fil1" d="M1000 451.68c-148.89,0 -167.58,0.64 -226.05,3.32 -58.36,2.65 -98.24,11.94 -133.09,25.49 -36.08,13.99 -66.64,32.74 -97.12,63.24 -30.5,30.48 -49.24,61.06 -63.24,97.11 -13.55,34.89 -22.84,74.74 -25.48,133.1 -2.68,58.5 -3.32,77.15 -3.32,226.05 0,148.93 0.64,167.58 3.32,226.08 2.64,58.37 11.93,98.21 25.48,133.1 14,36.05 32.74,66.64 63.24,97.12 30.48,30.47 61.04,49.24 97.12,63.24 34.85,13.55 74.73,22.8 133.09,25.48 58.47,2.68 77.16,3.29 226.05,3.29 148.93,0 167.59,-0.61 226.08,-3.29 58.37,-2.68 98.21,-11.93 133.1,-25.48 36.05,-14 66.61,-32.77 97.12,-63.24 30.48,-30.48 49.21,-61.07 63.24,-97.12 13.55,-34.89 22.81,-74.73 25.48,-133.1 2.65,-58.5 3.29,-77.15 3.29,-226.08 0,-148.9 -0.64,-167.55 -3.29,-226.05 -2.67,-58.36 -11.93,-98.21 -25.48,-133.1 -14.03,-36.05 -32.76,-66.63 -63.24,-97.11 -30.51,-30.5 -61.07,-49.25 -97.12,-63.24 -34.89,-13.55 -74.73,-22.84 -133.1,-25.49 -58.49,-2.68 -77.15,-3.32 -226.08,-3.32zm0 98.8c146.43,0 163.77,0.55 221.57,3.21 53.46,2.42 82.48,11.37 101.83,18.87 25.57,9.95 43.84,21.83 63.02,41.02 19.21,19.18 31.06,37.45 41.02,63.05 7.53,19.31 16.45,48.35 18.88,101.83 2.64,57.8 3.2,75.14 3.2,221.53 0,146.42 -0.56,163.77 -3.2,221.57 -2.43,53.48 -11.35,82.51 -18.88,101.8 -9.96,25.63 -21.81,43.86 -41.02,63.08 -19.18,19.15 -37.45,31.06 -63.02,40.99 -19.35,7.52 -48.37,16.45 -101.83,18.9 -57.8,2.62 -75.14,3.18 -221.57,3.18 -146.41,0 -163.73,-0.56 -221.56,-3.18 -53.45,-2.45 -82.48,-11.38 -101.8,-18.9 -25.6,-9.93 -43.87,-21.84 -63.05,-40.99 -19.19,-19.22 -31.07,-37.45 -41.02,-63.08 -7.5,-19.29 -16.45,-48.32 -18.87,-101.8 -2.66,-57.8 -3.19,-75.15 -3.19,-221.57 0,-146.39 0.53,-163.73 3.19,-221.53 2.42,-53.48 11.37,-82.52 18.87,-101.83 9.95,-25.6 21.83,-43.87 41.02,-63.05 19.18,-19.19 37.45,-31.07 63.05,-41.02 19.32,-7.5 48.35,-16.45 101.8,-18.87 57.83,-2.66 75.17,-3.21 221.56,-3.21z"/>
   <path class="fil1" d="M1000 1182.77c-100.93,0 -182.75,-81.84 -182.75,-182.78 0,-100.93 81.82,-182.75 182.75,-182.75 100.95,0 182.79,81.82 182.79,182.75 0,100.94 -81.84,182.78 -182.79,182.78zm0 -464.32c-155.48,0 -281.56,126.04 -281.56,281.54 0,155.51 126.08,281.58 281.56,281.58 155.52,0 281.58,-126.07 281.58,-281.58 0,-155.5 -126.06,-281.54 -281.58,-281.54z"/>
   <path class="fil1" d="M1358.51 707.29c0,36.36 -29.48,65.81 -65.81,65.81 -36.36,0 -65.8,-29.45 -65.8,-65.81 0,-36.33 29.44,-65.77 65.8,-65.77 36.33,0 65.81,29.44 65.81,65.77z"/>
  </g>
 </g>
</svg>
