<?xml version="1.0" encoding="UTF-8"?>
<!DOCTYPE svg PUBLIC "-//W3C//DTD SVG 1.1//EN" "http://www.w3.org/Graphics/SVG/1.1/DTD/svg11.dtd">
<!-- Creator: CorelDRAW 2017 -->
<svg xmlns="http://www.w3.org/2000/svg" xml:space="preserve" width="20mm" height="20mm" version="1.1" style="shape-rendering:geometricPrecision; text-rendering:geometricPrecision; image-rendering:optimizeQuality; fill-rule:evenodd; clip-rule:evenodd"
viewBox="0 0 2000 2000"
 xmlns:xlink="http://www.w3.org/1999/xlink">
 <defs>
  <style type="text/css">
   <![CDATA[
    .fil1 {fill:white}
    .fil0 {fill:#12B830;fill-rule:nonzero}
   ]]>
  </style>
 </defs>
 <g id="Capa_x0020_1">
  <metadata id="CorelCorpID_0Corel-Layer"/>
  <g id="_972033904">
   <path class="fil0" d="M999.99 2000l0 0c-552.27,0 -1000,-447.7 -1000,-999.99l0 0c0,-552.29 447.73,-1000.01 1000,-1000.01l0 0c552.28,0 1000.01,447.72 1000.01,1000.01l0 0c0,552.29 -447.73,999.99 -1000.01,999.99z"/>
   <path class="fil1" d="M1011.02 1481.16c-101.77,0 -196.27,-30.11 -275.44,-82.22l-192.36 61.33 62.42 -184.57c-59.93,-81.95 -95.32,-182.58 -95.32,-291.32 0,-16.19 0.83,-32.34 2.49,-48.22 24.54,-251.47 238.67,-448.57 498.21,-448.57 262.87,0 478.93,202.1 499.01,458.03 1.11,12.86 1.66,25.66 1.66,38.76 0,274.06 -224.7,496.78 -500.67,496.78zm595.17 -511.82c-8.07,-319.48 -271.22,-575.97 -595.17,-575.97 -320.06,0 -580.99,250.63 -594.92,565.11 -0.28,8.64 -0.56,17.27 -0.56,25.9 0,111.79 31.24,216.07 85.32,305.26l-107.36 316.98 329.8 -104.82c85.31,46.82 183.45,73.58 287.72,73.58 328.97,0 595.45,-264.56 595.45,-591 0,-5.03 0,-10.02 -0.28,-15.04z"/>
   <path class="fil1" d="M1283.94 1103.7c-14.77,-7.25 -86.42,-42.36 -99.8,-47.12 -13.38,-5.02 -23.15,-7.24 -32.9,7.25 -9.77,14.49 -37.92,47.11 -46.27,56.6 -8.64,9.75 -17.02,10.86 -31.79,3.61 -14.49,-7.24 -61.61,-22.28 -117.38,-71.92 -43.19,-38.18 -72.76,-85.56 -81.12,-100.08 -8.35,-14.49 -0.83,-22.3 6.42,-29.54 6.69,-6.69 14.49,-17.02 22.01,-25.37 1.97,-2.54 3.64,-4.76 5.3,-6.98 3.37,-5.29 5.87,-10.32 9.2,-17.29 5.02,-9.74 2.52,-18.09 -1.09,-25.34 -3.63,-7.28 -32.93,-78.62 -45.16,-107.63 -12,-28.99 -24.27,-23.96 -32.9,-23.96 -8.39,0 -18.14,-1.39 -27.91,-1.39 -9.74,0 -25.61,3.61 -39,18.1 -13.38,14.49 -51.02,49.64 -51.02,120.98 0,16.75 3.08,33.46 7.52,49.36 14.77,51.03 46.56,93.12 52.13,100.36 7.25,9.49 100.92,160.57 249.21,218.84 148.61,57.72 148.61,38.48 175.37,35.98 26.76,-2.25 86.43,-34.87 98.38,-68.87 12.31,-33.73 12.31,-62.72 8.67,-68.86 -3.64,-5.85 -13.38,-9.49 -27.87,-16.73z"/>
  </g>
 </g>
</svg>
