<?xml version="1.0" encoding="UTF-8"?>
<!DOCTYPE svg PUBLIC "-//W3C//DTD SVG 1.1//EN" "http://www.w3.org/Graphics/SVG/1.1/DTD/svg11.dtd">
<!-- Creator: CorelDRAW 2017 -->
<svg xmlns="http://www.w3.org/2000/svg" xml:space="preserve" width="20mm" height="20mm" version="1.1" style="shape-rendering:geometricPrecision; text-rendering:geometricPrecision; image-rendering:optimizeQuality; fill-rule:evenodd; clip-rule:evenodd"
viewBox="0 0 2000 2000"
 xmlns:xlink="http://www.w3.org/1999/xlink">
 <defs>
  <style type="text/css">
   <![CDATA[
    .fil0 {fill:#115FB8;fill-rule:nonzero}
    .fil1 {fill:white;fill-rule:nonzero}
   ]]>
  </style>
 </defs>
 <g id="Capa_x0020_1">
  <metadata id="CorelCorpID_0Corel-Layer"/>
  <g id="_973620800">
   <path class="fil0" d="M999.99 2000l0 0c-552.29,0 -999.99,-447.7 -999.99,-1000l0 0c0,-552.29 447.7,-999.99 999.99,-999.99l0 0c552.3,0 1000,447.7 1000,999.99l0 0c0,552.3 -447.7,1000 -1000,1000z"/>
   <path class="fil1" d="M847.64 1604.46l243.42 0 0 -609.59 169.82 0 18.12 -204.1 -187.94 0c0,0 0,-76.22 0,-116.26 0,-48.09 9.65,-67.13 56.19,-67.13 37.45,0 131.75,0 131.75,0l0 -211.81c0,0 -138.89,0 -168.55,0 -181.14,0 -262.81,79.78 -262.81,232.47 0,133 0,162.73 0,162.73l-126.65 0 0 206.64 126.65 0 0 607.05z"/>
  </g>
 </g>
</svg>
